<?xml version="1.0" encoding="utf-8"?>
<!-- Generator: Adobe Illustrator 23.1.0, SVG Export Plug-In . SVG Version: 6.00 Build 0)  -->
<svg version="1.1" id="Layer_1" xmlns="http://www.w3.org/2000/svg" xmlns:xlink="http://www.w3.org/1999/xlink" x="0px" y="0px"
	 viewBox="0 0 4000 4000" style="enable-background:new 0 0 4000 4000;" xml:space="preserve">
<style type="text/css">
	.st0{fill:#FFA05C;}
	.st1{opacity:0.2;enable-background:new    ;}
	.st2{fill:#650000;}
	.st3{fill:#FEDC4C;}
	.st4{opacity:0.6;enable-background:new    ;}
	.st5{fill:#FFFFFF;}
	.st6{filter:url(#Adobe_OpacityMaskFilter);}
	.st7{filter:url(#Adobe_OpacityMaskFilter_1_);}
	.st8{mask:url(#SVGID_1_);fill:url(#SVGID_2_);}
	.st9{fill:url(#SVGID_3_);}
	.st10{filter:url(#Adobe_OpacityMaskFilter_2_);}
	.st11{filter:url(#Adobe_OpacityMaskFilter_3_);}
	.st12{mask:url(#SVGID_4_);fill:url(#SVGID_5_);}
	.st13{fill:url(#SVGID_6_);}
	.st14{fill:#D86635;}
	.st15{filter:url(#Adobe_OpacityMaskFilter_4_);}
	.st16{filter:url(#Adobe_OpacityMaskFilter_5_);}
	.st17{mask:url(#SVGID_7_);fill:url(#SVGID_8_);}
	.st18{fill:url(#SVGID_9_);}
	.st19{filter:url(#Adobe_OpacityMaskFilter_6_);}
	.st20{filter:url(#Adobe_OpacityMaskFilter_7_);}
	.st21{mask:url(#SVGID_10_);fill:url(#SVGID_11_);}
	.st22{fill:url(#SVGID_12_);}
	.st23{fill:#EE1A26;}
	.st24{opacity:0.6118;enable-background:new    ;}
	.st25{fill:#A16F43;}
	.st26{fill:#DB4B46;}
	.st27{opacity:0.1882;enable-background:new    ;}
	.st28{fill:#39005E;}
	.st29{opacity:0.2118;enable-background:new    ;}
</style>
<g>
	<g>
		<g>
			<g>
				<path class="st0" d="M3629.6,731.13c-0.14,27.92-4.08,57.01-12.44,87.21c-71.38,258.99-287.39,218.29-287.39,218.29
					s-0.14,0.35-0.48,0.97c-0.69,1.24-2,3.8-3.94,7.53c-8.5,16.24-28.81,55.14-57.35,110.56
					c-111.8,217.05-350.07,688.11-504.16,1051.51c-16.79,39.59-34.62,82.37-53.35,127.49c-58.11,139.93-124.8,302.87-196.45,467.19
					c-74.63,170.82-154.51,343.16-235.7,492.76c-52.1,95.91-104.69,182.5-156.72,253.39c-60.53,82.37-120.3,143.45-177.59,173.24
					c-10.78,5.67-21.35,10.16-31.93,13.47c-1.52,0.55-3.11,1.04-4.63,1.45c0,0,46.92,205.16-75.04,219.88
					c-54.73,6.63-73.45-41.53-80.16-104.62c-8.36-77.46,1.31-177.45-15.55-226.51c-30.54-89-194.04-81.26-230.25-372.59
					c0,0-104.89-134.4-135.23-297.34c8.91,53.07,43.4,289.6-53.62,289.6c-109.32,0-47.33-228.93-85.41-411.36
					c-38.01-182.43-206.41-636.14-206.41-636.14s25.98,269.15-106.42,264.86c-132.4-4.35-101.37-207.92-65.65-366.79
					c35.79-158.79-5.32-441.56-47.47-649.62c-31.79-157.07-52.1-382.61-41.88-517.64c2.97-39.73,8.71-71.66,17.48-91.63
					c0.9-2.07,1.87-4.01,2.83-5.8c0,0-19.83-7.81-48.16-23.36c-3.18-1.73-6.5-3.59-9.95-5.53c-5.87-3.39-12.02-6.98-18.31-10.92
					c-2.7-1.73-5.53-3.46-8.29-5.25c-1.59-1.04-3.18-2-4.7-3.04c-9.4-6.15-19.07-12.92-28.75-20.32c-1.66-1.24-3.25-2.49-4.91-3.73
					c-4.84-3.73-9.67-7.6-14.51-11.75c-1.66-1.38-3.25-2.76-4.84-4.15c-3.18-2.7-6.36-5.53-9.54-8.5
					c-4.77-4.35-9.47-8.91-14.03-13.54c-3.04-3.11-6.08-6.29-9.05-9.47c-9.33-10.16-18.17-21.01-26.26-32.41
					c-2.21-3.11-4.35-6.29-6.43-9.47c-1.04-1.59-2.07-3.18-3.04-4.77c-2.56-4.15-5.04-8.36-7.39-12.65
					c-1.31-2.42-2.56-4.84-3.8-7.26c-0.9-1.8-1.87-3.66-2.7-5.53c-0.83-1.73-1.66-3.46-2.42-5.25c-0.97-2.07-1.8-4.15-2.7-6.22
					c-55.28-134.06-16.52-291.88,104.2-363.4c120.72-71.52,480.18-89,614.58-128.25c134.4-39.32,493.52-140.69,881.87-18.73
					c388.28,122.03,536.16,71.87,723.76,82.3c83.68,4.7,261.82,48.16,423.52,130.74c87.14,44.5,169.51,100.33,229.76,167.64
					c0.07,0,0.07,0,0.14,0.07C3592.36,564.32,3630.29,642.13,3629.6,731.13z"/>
			</g>
			<g class="st1">
				<path class="st2" d="M3629.6,731.13c-20.11,45.05-50.03,84.79-90.25,114.5c-119.82,88.52-318,87.69-381.23,197.49
					c0.97,76.84,1.94,154.44-13.41,229.76c-15.27,75.32-48.37,149.33-105.59,200.6c-49.34,44.16-116.78,72.56-145.73,132.12
					c-30.13,61.85-8.64,138.82-36,201.98c-24.46,56.46-82.37,90.11-120.3,138.55c-46.85,59.7-60.88,139.65-56.59,215.39
					c3.32,58.6,16.58,115.88,29.99,173.17c-58.11,139.93-124.8,302.87-196.45,467.19c-42.43-7.39-81.26-30.75-101.23-68.76
					c19.69,110.77-57.49,230.04-179.32,256.09c26.74,99.85,53.55,203.3,44.85,305.36c0,0.07,0,0.07,0,0.07
					c-1.24,14.37-3.18,28.68-5.94,42.98c-16.79,87.48-73.32,172.54-150.78,210.41h-0.07c-25.08,12.23-52.24,19.56-81.06,20.38
					c-18.24,0.55-37.04-1.38-54.45,4.08c-54.11,16.93-63.23,92.18-43.4,145.25c0.41,1.18,0.9,2.35,1.38,3.52
					c-2.56,1.38-5.11,2.63-7.67,3.87c-8.15,3.87-16.24,7.05-24.25,9.61c-1.52,0.55-3.11,1.04-4.63,1.45
					c0,0,46.92,205.16-75.04,219.88c-3.39,0.42-6.63,0.62-9.74,0.62c-1.73,0-3.39-0.07-4.98-0.21c-1.31-0.07-2.56-0.21-3.73-0.41
					c-0.83-0.07-1.59-0.14-2.35-0.35c-1.04-0.14-2-0.35-2.97-0.55c-0.21-0.07-0.35-0.07-0.55-0.14c-1.04-0.21-2.14-0.55-3.11-0.9
					c-6.91-2.07-12.99-5.46-18.31-9.95c-0.83-0.69-1.59-1.38-2.35-2.14c-3.73-3.52-7.12-7.67-10.09-12.3
					c-0.83-1.31-1.66-2.63-2.42-4.01c-0.83-1.38-1.59-2.83-2.28-4.28c-4.84-9.6-8.57-20.94-11.4-33.38
					c-0.42-1.66-0.76-3.32-1.11-4.98c-0.35-1.66-0.69-3.32-0.97-4.98c-1.24-6.84-2.28-13.89-3.18-21.15
					c-0.28-1.8-0.48-3.66-0.62-5.53c-0.48-4.84-0.97-9.74-1.38-14.79c-0.76-9.95-1.31-20.25-1.73-30.68
					c-0.07-3.32-0.21-6.7-0.35-10.16c-0.07-1.87-0.14-3.66-0.14-5.53c-0.07-2.76-0.14-5.6-0.21-8.43
					c-0.35-16.24-0.48-32.62-0.69-48.51c-0.14-6.84-0.21-13.54-0.42-20.11v-0.83c-0.14-4.08-0.28-8.15-0.42-12.16
					c-0.07-2.14-0.14-4.28-0.28-6.36c-0.07-2.14-0.21-4.22-0.35-6.22c-0.48-8.22-1.04-16.17-1.87-23.63
					c-0.14-1.66-0.35-3.39-0.55-4.98c-0.28-2-0.55-4.01-0.83-5.94c-0.14-1.38-0.35-2.7-0.62-4.01c-1.45-8.98-3.32-17.14-5.74-24.19
					c-30.54-89-194.04-81.26-230.25-372.59c0,0-104.89-134.4-135.23-297.34c8.91,53.07,43.4,289.6-53.62,289.6
					c-109.32,0-47.33-228.93-85.41-411.36c-38.01-182.43-206.41-636.14-206.41-636.14s25.98,269.15-106.42,264.86
					c-132.4-4.35-101.37-207.92-65.65-366.79c35.79-158.79-5.32-441.56-47.47-649.62c-28.54-141.31-47.96-338.11-44.09-474.45
					c0.14-4.01,0.28-8.02,0.41-11.89c0.28-7.6,0.69-15,1.18-22.18c0.21-3.11,0.41-6.15,0.62-9.12c0.28-4.01,0.62-7.88,0.97-11.68
					c0.97-10.5,2.14-20.32,3.59-29.51c0.28-1.94,0.55-3.87,0.9-5.74c0.69-4.35,1.52-8.64,2.35-12.65c1.18-5.32,2.35-10.3,3.66-14.93
					c0.48-1.73,0.97-3.46,1.59-5.11c0.41-1.38,0.83-2.7,1.31-3.94c0.48-1.45,0.97-2.83,1.52-4.22c0.48-1.31,1.04-2.63,1.59-3.87
					c0.9-2.07,1.87-4.01,2.83-5.8c0,0-19.83-7.81-48.16-23.36c-3.18-1.73-6.5-3.59-9.95-5.53c-5.87-3.39-12.02-6.98-18.31-10.92
					c-2.7-1.73-5.53-3.46-8.29-5.25c-1.59-1.04-3.18-2-4.7-3.04c-9.4-6.15-19.07-12.92-28.75-20.32c-1.66-1.24-3.25-2.49-4.91-3.73
					c-4.84-3.73-9.67-7.6-14.51-11.75c-1.66-1.38-3.25-2.76-4.84-4.15c-3.18-2.7-6.36-5.53-9.54-8.5
					c-4.77-4.35-9.47-8.91-14.03-13.54c-3.04-3.11-6.08-6.29-9.05-9.47c-9.33-10.16-18.17-21.01-26.26-32.41
					c-2.21-3.11-4.35-6.29-6.43-9.47c-1.04-1.59-2.07-3.18-3.04-4.77c-2.56-4.15-5.04-8.36-7.39-12.65
					c-1.31-2.42-2.56-4.84-3.8-7.26c-0.9-1.8-1.87-3.66-2.7-5.53c-0.83-1.73-1.66-3.46-2.42-5.25c-0.97-2.07-1.8-4.15-2.7-6.22
					c-55.28-134.06-16.52-291.88,104.2-363.4c120.72-71.52,480.18-89,614.58-128.25c134.4-39.32,493.52-140.69,881.87-18.73
					c388.28,122.03,536.16,71.87,723.76,82.3c10.43,0.55,22.39,1.8,35.59,3.59c3.32,0.41,6.7,0.9,10.16,1.45
					c11.95,1.8,24.81,4.08,38.42,6.84c3.04,0.55,6.15,1.24,9.26,1.87c9.26,1.93,18.86,4.08,28.81,6.5
					c3.32,0.76,6.63,1.59,10.02,2.42c6.7,1.66,13.54,3.39,20.52,5.25c3.52,0.9,6.98,1.87,10.5,2.83
					c16.24,4.42,32.96,9.33,50.17,14.79c4.08,1.24,8.15,2.56,12.3,3.94c3.66,1.17,7.39,2.35,11.13,3.66
					c25.91,8.57,52.52,18.24,79.33,29.02c5.11,2.07,10.23,4.15,15.34,6.29c5.11,2.07,10.3,4.22,15.41,6.5
					c5.11,2.14,10.23,4.42,15.41,6.7c10.3,4.49,20.59,9.26,30.89,14.17c5.04,2.42,10.02,4.84,15.06,7.33
					c5.11,2.49,10.16,5.04,15.2,7.6c5.46,2.76,10.85,5.6,16.31,8.5c16.17,8.57,32.2,17.55,47.89,27.02
					c5.25,3.11,10.43,6.29,15.55,9.54c5.18,3.18,10.3,6.5,15.34,9.81c5.32,3.45,10.64,6.98,15.89,10.57
					c4.56,3.11,8.98,6.29,13.41,9.4c5.32,3.8,10.57,7.67,15.76,11.61c4.22,3.11,8.36,6.36,12.51,9.61c0.62,0.41,1.17,0.9,1.8,1.45
					c8.78,6.91,17.28,13.96,25.57,21.21c0.48,0.41,0.9,0.76,1.31,1.18c4.15,3.59,8.22,7.26,12.16,10.99c0.69,0.62,1.38,1.24,2,1.87
					c3.59,3.32,7.19,6.77,10.64,10.23c3.25,3.11,6.43,6.29,9.47,9.54c2,2,4.01,4.08,5.87,6.15c2.83,2.97,5.6,5.94,8.29,8.98
					c0.07,0,0.07,0,0.14,0.07c1.87,2.07,3.66,4.15,5.46,6.22c3.59,4.15,7.12,8.36,10.57,12.65c14.24,17.62,26.95,36,37.73,55.07
					c2.28,3.94,4.49,7.88,6.56,11.89c17.07,32.75,28.81,67.65,33.79,104.69C3628.77,702.24,3629.74,716.55,3629.6,731.13z"/>
			</g>
			<g>
				<path class="st3" d="M3053.78,1027.85c14.3,99.92,38.07,230.59-48.65,260.65c-86.72,30.06-118.58-51.69-118.58-51.69
					s4.77,170.68-83.2,358.08c-87.9,187.4-190.58,281.38-207.1,482.81c-16.45,201.43,79.4,480.46-72.76,527.17
					c-152.16,46.71-134.61-178.76-134.61-178.76s-45.75,135.65-55.63,232.18c-9.95,96.6,7.67,177.11-47.2,202.19
					c-54.8,25.08-95.64-45.26-98.19-115.12c0,0-40.56,146.42-19,320.01c21.56,173.58,23.36,325.19-64.33,376.12
					c-66.68,38.83-104.55-33.38-156.58-24.05c-86.72,15.69-68.89,205.92-43.81,312.75c2.76,11.61,6.43,27.09,9.54,44.64
					c12.37,69.24,16.03,169.5-81.26,181.25c-3.39,0.42-6.63,0.62-9.74,0.62c-1.73,0-3.39-0.07-4.98-0.21
					c-1.31-0.07-2.56-0.21-3.73-0.41c-0.83-0.07-1.59-0.14-2.35-0.35c-1.04-0.14-2-0.35-2.97-0.55c-0.21-0.07-0.41-0.07-0.55-0.14
					c-1.04-0.21-2.14-0.55-3.11-0.9c-6.91-2.07-12.99-5.46-18.31-9.95c-0.83-0.69-1.59-1.38-2.35-2.14
					c-3.73-3.52-7.12-7.67-10.09-12.3c-0.83-1.31-1.66-2.63-2.42-4.01c-0.83-1.38-1.59-2.83-2.28-4.28
					c-4.84-9.6-8.57-20.94-11.4-33.38c-0.42-1.66-0.76-3.32-1.1-4.98c-0.35-1.59-0.62-3.32-0.97-4.98
					c-1.31-6.77-2.35-13.82-3.18-21.15c-0.21-1.87-0.41-3.66-0.62-5.53c-8.36-77.46,1.31-177.45-15.55-226.51
					c-30.54-89-194.04-81.26-230.25-372.59c0,0-100.13-128.32-133.02-286.15c-0.76-3.73-1.52-7.46-2.21-11.19
					c0.62,3.87,1.45,8.78,2.28,14.44c5.53,36.14,14.1,105.31,9.81,165.29c-4.15,59.5-20.94,109.87-65.72,109.87
					c-30.75,0-47.96-18.1-57.63-48.16c-24.74-76.91-0.42-232.04-27.78-363.2c-31.79-152.64-154.92-495.32-194.24-603.04
					c-7.67-21.01-12.16-33.1-12.16-33.1s25.98,269.15-106.42,264.86c-56.32-1.87-83.06-39.73-92.46-94.94
					c-12.71-74.49,6.29-180.56,26.81-271.84c35.79-158.79-5.32-441.56-47.47-649.62c-41.11-203.36-63.16-521.57-24.39-609.26
					c0.9-2.07,1.87-4.01,2.83-5.8c0,0-19.76-7.81-48.16-23.36c181.81-182.98,860.24-705.24,2221.74-68.34
					c37.18,17.41,74.84,35.66,113.05,54.8C3071.34,793.6,3039.48,927.86,3053.78,1027.85z"/>
			</g>
			<g class="st1">
				<path class="st2" d="M3617.17,818.33c-71.38,258.99-287.39,218.29-287.39,218.29s-0.14,0.35-0.48,0.97
					c-0.69,1.24-2,3.8-3.94,7.53c-8.5,16.24-28.81,55.14-57.35,110.56c-59.63-6.7-120.58-22.53-178-44.16
					c-8.78-3.32-17.48-6.77-26.19-10.3c9.33,82.09,7.81,164.25-58.67,187.26c-86.72,30.06-118.58-51.69-118.58-51.69
					s4.77,170.68-83.2,358.08c-87.9,187.4-190.58,281.38-207.1,482.81c-16.45,201.43,79.4,480.46-72.76,527.17
					c-152.16,46.71-134.61-178.76-134.61-178.76s-45.75,135.65-55.63,232.18c-9.95,96.6,7.67,177.11-47.2,202.19
					c-54.8,25.08-95.64-45.26-98.19-115.12c0,0-40.56,146.42-19,320.01c21.56,173.58,23.36,325.19-64.33,376.12
					c-66.68,38.83-104.55-33.38-156.58-24.05c-86.72,15.69-68.89,205.92-43.81,312.75c2.76,11.61,6.43,27.09,9.54,44.64
					c6.84,60.19,6.98,170.61-81.26,181.25c-3.39,0.42-6.63,0.62-9.74,0.62c-1.73,0-3.39-0.07-4.98-0.21
					c-1.31-0.07-2.56-0.21-3.73-0.41c-0.83-0.07-1.59-0.14-2.35-0.35c-1.04-0.14-2-0.35-2.97-0.55c-0.21-0.07-0.42-0.07-0.55-0.14
					c-1.04-0.21-2.14-0.55-3.11-0.9c-6.91-2.07-12.99-5.46-18.31-9.95c-0.83-0.69-1.59-1.38-2.35-2.14
					c-3.73-3.52-7.12-7.67-10.09-12.3c-0.83-1.31-1.66-2.63-2.42-4.01c-0.83-1.38-1.59-2.83-2.28-4.28
					c-4.84-9.6-8.57-20.94-11.4-33.38c-0.42-1.66-0.76-3.32-1.11-4.98c-0.35-1.59-0.62-3.32-0.97-4.98
					c-1.59-8.57-2.76-17.41-3.8-26.6c0,0,0,0,0-0.07c30.13-10.09,55.97-28.82,71.17-53.41c29.99-48.44,28.4-109.94,19.07-166.19
					c-9.26-56.25-25.29-112.36-20.73-169.23c4.63-56.8,36.28-116.5,91.01-132.47c47.47-13.89,109.18,4.22,140.34-34.2
					c13.13-16.1,16.1-38.01,18.59-58.6c20.11-167.22,34.14-369.34,70.97-552.74c5.39-26.74,36.42-39.11,58.81-23.49
					c98.75,68.76,99.78-62.61,110.91-143.18c9.81-71.04,38.49-137.93,57.49-207.16c10.5-38.28,17.83-78.71,17.28-118.3
					c13.27,64.89,26.54,129.77,39.73,194.66c3.11,15.2,7.05,31.72,19.56,40.91c31.1,22.8,67.93-21.63,77.81-58.94
					c47.2-178.76,0-372.39,48.23-550.87c62.74-232.11,277.37-404.66,320.77-641.12c11.06,16.17,38.07,13.06,51.55-1.45
					c13.41-14.58,16.58-35.59,18.17-55.35c0-0.35,0.07-0.69,0.07-1.11c2.97-37.87-17.55-73.59-50.93-91.84
					c-60.6-33.03-120.1-68.34-180.84-101.03c-121.69-65.44-250.84-121.13-387.66-140.28c-173.58-24.25-349.03,11.33-523.58,27.23
					c-174.55,15.96-362.09,8.71-507.68-88.86c-77.25,100.47-181.94,167.16-296.51,196.66c-81.88,21.15-168.54,23.22-251.46,6.77
					c2.97-39.73,8.71-71.66,17.48-91.63c0.9-2.07,1.87-4.01,2.83-5.8c0,0-19.83-7.81-48.16-23.36c-3.18-1.73-6.5-3.59-9.95-5.53
					c-5.87-3.39-12.02-6.98-18.31-10.92c-2.7-1.73-5.53-3.46-8.29-5.25c-1.59-1.04-3.18-2-4.7-3.04
					c-9.4-6.15-19.07-12.92-28.75-20.32c-1.66-1.24-3.25-2.49-4.91-3.73c-4.84-3.73-9.67-7.6-14.51-11.75
					c-1.66-1.38-3.25-2.76-4.84-4.15c-3.18-2.7-6.36-5.53-9.54-8.5c-4.77-4.35-9.47-8.91-14.03-13.54
					c-3.04-3.11-6.08-6.29-9.05-9.47c-9.33-10.16-18.17-21.01-26.26-32.41c-2.21-3.11-4.35-6.29-6.43-9.47
					c-1.04-1.59-2.07-3.18-3.04-4.77c-2.56-4.15-5.04-8.36-7.39-12.65c-1.31-2.42-2.56-4.84-3.8-7.26c-0.9-1.8-1.87-3.66-2.7-5.53
					c-0.83-1.73-1.66-3.46-2.42-5.25c-0.97-2.07-1.8-4.15-2.7-6.22c-55.28-134.06-16.52-291.88,104.2-363.4
					c120.72-71.52,480.18-89,614.59-128.25c134.4-39.32,493.52-140.69,881.87-18.73c388.28,122.03,536.16,71.87,723.76,82.3
					c128.8,7.19,481.36,106.28,653.28,298.38c0.07,0,0.07,0,0.14,0.07C3611.09,585.26,3651.99,692.09,3617.17,818.33z"/>
			</g>
			<g>
				<path class="st2" d="M1822.68,3986.11c-2.43,0-4.77-0.09-7.02-0.27c-1.82-0.11-3.63-0.3-5.4-0.57
					c-1.07-0.11-2.48-0.29-4.11-0.62c-1.28-0.21-2.52-0.46-3.74-0.73c-0.3-0.06-0.6-0.14-0.9-0.21c-1.8-0.4-3.66-0.92-5.63-1.59
					c-10.35-3.21-19.82-8.4-28.18-15.46c-1.21-1-2.53-2.2-3.86-3.5c-5.32-5.08-10.15-10.98-14.36-17.53
					c-1.13-1.78-2.17-3.46-3.15-5.2c-1.16-1.96-2.23-3.99-3.21-6.04c-5.61-11.2-10.21-24.58-13.67-39.79
					c-0.36-1.43-0.8-3.47-1.22-5.51c-0.4-1.9-0.79-3.82-1.12-5.75c-1.36-7.07-2.47-14.44-3.39-22.5c-0.33-2.21-0.58-4.5-0.76-6.78
					c-0.49-4.91-0.98-9.88-1.4-14.99c-0.82-9.87-1.43-20.68-1.81-32.11c-0.07-3.37-0.2-6.41-0.32-9.53c0-0.03-0.03-0.91-0.04-0.94
					c-0.07-1.95-0.14-3.84-0.14-5.8l-0.2-8.13c-0.26-12.18-0.4-24.34-0.54-36.34l-0.27-19.05c-0.07-4.4-0.15-8.74-0.28-13.01
					c-0.01-0.31-0.01-0.62-0.01-0.93v-0.33l-0.52-14.31c-0.06-1.15-0.11-2.29-0.15-3.45l-0.31-5.5c-0.42-7.09-0.94-15.07-1.75-22.35
					c-0.03-0.27-0.06-0.53-0.08-0.8c-0.1-1.21-0.26-2.47-0.41-3.63l-0.78-5.57c-0.06-0.43-0.11-0.87-0.16-1.3
					c-0.02-0.27-0.07-0.53-0.12-0.79c-0.1-0.47-0.19-0.93-0.26-1.4c-1.25-7.73-2.77-14.24-4.52-19.33
					c-7.27-21.18-27.34-36.41-55.12-57.48c-62.84-47.68-148.6-112.74-175.48-313.18c-11.16-15.14-38.91-54.68-67.15-109.5
					c-4.45,36.94-14.28,69.63-32.54,91.22c-15.76,18.63-36.85,28.48-60.99,28.48c-31.81,0-73.16-14.32-89.51-82.56
					c-9.68-40.38-10.02-92-10.41-151.78c-0.42-63.88-0.9-136.28-14.29-200.43c-23.92-114.82-101.52-342.2-154.13-490.59
					c-7.63,40.94-21.79,81.17-47.27,108.33c-22.08,23.54-50.99,35.43-83.57,34.37c-37.85-1.24-69.04-16.38-90.23-43.77
					c-57.26-74.03-33.73-222.96-3.17-358.87c37.35-165.7-13.79-470.43-47.6-637.32c-30.11-149.06-48.47-346.9-44.66-481.12
					l0.42-12.08c0.29-7.96,0.72-15.65,1.23-23.13l0.62-9.18c0.29-4.21,0.65-8.29,1.02-12.3c1.06-11.52,2.31-21.79,3.83-31.42
					c0.28-1.97,0.59-4.07,0.96-6.12c0.75-4.69,1.64-9.31,2.54-13.64c1.16-5.57,2.51-11.1,4.03-16.5
					c-7.25-3.54-15.72-7.87-25.03-12.98c-2.74-1.49-5.7-3.15-8.77-4.87l-1.4-0.78c-6.49-3.74-12.95-7.52-19.55-11.65l-3.72-2.35
					c-1.66-1.04-3.33-2.09-4.98-3.16l-1.63-1.04c-1.22-0.78-2.43-1.55-3.61-2.35c-10.16-6.64-20.42-13.89-30.05-21.26l-4.7-3.58
					c-6.26-4.83-11.25-8.86-16-12.94c-1.42-1.18-3.1-2.63-4.77-4.09c-3.48-2.95-7-6.09-10.53-9.39c-4.68-4.27-9.78-9.19-14.91-14.41
					c-3.26-3.33-6.45-6.67-9.58-10.02c-10.56-11.49-20.18-23.36-28.77-35.48c-2.42-3.41-4.79-6.91-7.07-10.41
					c-1.36-2.09-2.48-3.82-3.53-5.55c-2.74-4.44-5.48-9.09-8.06-13.81c-1.47-2.71-2.82-5.32-4.16-7.93l-0.71-1.42
					c-0.86-1.7-1.72-3.45-2.51-5.18c-0.95-1.98-1.81-3.82-2.62-5.69c-0.71-1.54-1.37-3.09-2.02-4.63l-0.78-1.84
					c-62.74-152.12-12.69-324.06,116.2-400.42c80.03-47.42,250.53-71.48,400.97-92.71c88.18-12.45,171.47-24.2,220.37-38.48
					c122.67-35.88,496.01-145.1,898.93-18.55c284.02,89.27,437.52,84.84,572.93,80.96c48.51-1.4,94.32-2.71,143.65,0.03
					c10.84,0.57,23.27,1.83,37.91,3.82c3.34,0.42,7.06,0.95,10.84,1.55c12.29,1.84,25.72,4.24,39.63,7.06c1.58,0.28,3.78,0.74,6,1.2
					l3.17,0.65c10.61,2.22,20.34,4.41,30,6.76c2.51,0.57,5.41,1.29,8.35,2.01l1.74,0.43c6.92,1.71,13.94,3.49,21.1,5.4
					c2.74,0.7,5.75,1.52,8.8,2.36l1.9,0.52c17.03,4.64,34.3,9.73,51.28,15.12c3.99,1.21,8.31,2.6,12.7,4.07l1.07,0.34
					c3.48,1.11,7.01,2.24,10.54,3.49c26.71,8.82,53.98,18.8,80.52,29.46l1.07,0.43c4.89,1.99,9.78,3.97,14.68,6.03
					c5.01,2.03,10.4,4.26,15.73,6.63c4.26,1.79,8.53,3.67,12.83,5.57l2.73,1.2c9.45,4.12,19.85,8.89,31.69,14.53
					c5.22,2.5,10.29,4.97,15.43,7.51c5.11,2.48,10.3,5.11,15.49,7.75c5.61,2.84,11.18,5.76,16.81,8.76
					c17.4,9.22,33.99,18.58,49.27,27.8c5.3,3.14,10.75,6.48,16.12,9.89c5.06,3.1,10.43,6.58,15.73,10.06
					c5.39,3.49,10.9,7.15,16.35,10.88c3.37,2.3,6.72,4.66,10.04,7.02l3.68,2.6c5.73,4.09,11.22,8.13,16.63,12.25
					c3.91,2.87,8.08,6.13,12.26,9.41c1.27,0.92,2.31,1.79,3.07,2.45c8.96,7.07,17.74,14.37,26.11,21.69
					c0.61,0.52,1.18,1.03,1.75,1.56c4.19,3.64,8.31,7.35,12.29,11.12c0.81,0.73,1.61,1.47,2.36,2.2c3.69,3.41,7.38,6.96,10.93,10.51
					c3.44,3.29,6.8,6.66,10.03,10.1c2.14,2.16,4.29,4.38,6.3,6.6c2.57,2.7,5.09,5.41,7.56,8.16c0.19,0.19,0.37,0.37,0.56,0.57
					c0.2,0.21,0.4,0.43,0.61,0.65c1.98,2.2,3.88,4.39,5.78,6.58c3.86,4.46,7.61,8.94,11.29,13.5
					c15.58,19.28,29.19,39.16,40.44,59.05c2.3,3.97,4.6,8.2,6.9,12.5c19.36,37.15,31.76,75.63,37,114.64
					c2.18,15.65,3.18,31.54,2.96,47.09c-0.17,31.1-4.71,62.98-13.5,94.73c-63.61,230.77-236.81,244.38-298.78,241.52
					c-54.16,103.57-366.94,705.46-555.82,1150.98c-17.96,42.34-37,88.1-53.26,127.28c-10.41,25.07-21.09,50.86-32.03,77.27
					c-49.55,119.65-105.7,255.27-164.63,390.41c-87.72,200.97-164.99,362.52-236.2,493.82c-0.2,0.41-0.41,0.82-0.62,1.22
					c-55.92,102.95-109.37,189.34-158.85,256.76c-0.36,0.49-0.74,0.97-1.12,1.43c-66.98,90.99-128.03,150.04-186.61,180.5
					c-2.51,1.36-5.43,2.79-8.36,4.22c-2.77,1.32-5.54,2.57-8.31,3.75c6.59,43.23,13.14,128.66-25.14,183.08
					c-18.72,26.61-46.32,42.81-79.83,46.85C1831.46,3985.83,1826.98,3986.11,1822.68,3986.11z M1819.08,3927.27
					c0.05,0.01,0.11,0.03,0.16,0.04C1819.19,3927.3,1819.14,3927.28,1819.08,3927.27z M1817.25,3926.85
					c0.62,0.07,1.3,0.16,1.74,0.23c0.33,0.02,0.89,0.06,1.22,0.09c2.56,0.2,5.5,0.08,8.65-0.3c17.23-2.08,29.53-9.15,38.76-22.25
					c29.71-42.15,18.13-131.16,11.17-161.91c-3.48-15.37,5.75-30.77,20.95-34.91c0.77-0.21,1.58-0.45,2.35-0.73
					c0.35-0.13,0.7-0.25,1.06-0.36c6.88-2.19,13.81-4.94,20.59-8.16c1.92-0.94,4.11-1.99,6.29-3.17
					c50.41-26.21,106.73-81.57,167.8-164.76c0.35-0.48,0.72-0.95,1.09-1.4c47.45-64.84,98.89-148.1,152.94-247.49
					c0.19-0.4,0.4-0.8,0.61-1.2c70.56-130.02,147.3-290.44,234.6-490.43c58.71-134.62,114.75-269.97,164.2-389.39
					c10.94-26.43,21.63-52.24,32.05-77.32c16.3-39.28,35.39-85.17,53.43-127.7c196.4-463.26,525.65-1093.86,562.54-1164.24
					l1.14-2.19c0.95-1.83,1.72-3.31,2.31-4.43c4.7-13.69,18.1-19.85,32.48-17.13c7.63,1.37,190.57,31.43,253.58-197.2
					c7.43-26.83,11.25-53.57,11.38-79.53c0-0.1,0-0.19,0-0.28c0.18-12.59-0.64-25.5-2.43-38.36c-4.35-32.37-14.69-64.34-30.74-95.15
					c-1.84-3.44-3.82-7.09-5.94-10.74c-9.81-17.35-21.58-34.53-35.15-51.32c-3.25-4.04-6.55-7.98-9.92-11.86
					c-1.35-1.56-2.68-3.1-4.05-4.63c-0.46-0.45-0.91-0.92-1.34-1.41c-2.46-2.77-4.98-5.49-7.57-8.2c-0.19-0.2-0.38-0.41-0.57-0.61
					c-1.53-1.7-3.18-3.4-4.83-5.05c-0.22-0.22-0.44-0.44-0.65-0.67c-2.68-2.86-5.49-5.66-8.35-8.4c-0.15-0.15-0.31-0.3-0.46-0.45
					c-3.18-3.18-6.48-6.36-9.79-9.41c-0.29-0.27-0.57-0.54-0.86-0.82l-0.85-0.77c-0.2-0.18-0.39-0.36-0.58-0.54
					c-3.62-3.43-7.38-6.8-11.2-10.11c-0.34-0.29-0.68-0.6-1-0.91c-0.17-0.15-0.4-0.34-0.41-0.35c-7.81-6.83-16.02-13.64-24.4-20.24
					c-0.39-0.31-0.77-0.62-1.14-0.95c-0.2-0.15-0.4-0.3-0.6-0.45c-4.14-3.24-7.95-6.23-11.82-9.08c-5.3-4.03-10.32-7.72-15.4-11.35
					l-3.65-2.58c-3.04-2.15-6.1-4.32-9.23-6.45c-5.1-3.49-10.22-6.88-15.34-10.21c-4.93-3.24-9.79-6.39-14.71-9.41
					c-5.24-3.32-10.17-6.35-15.15-9.3c-14.56-8.79-30.19-17.61-46.67-26.33c-5.32-2.83-10.53-5.57-15.81-8.25
					c-4.93-2.5-9.83-4.98-14.79-7.4c-5.1-2.52-9.98-4.88-14.92-7.26c-11.18-5.32-20.99-9.83-29.93-13.72l-2.86-1.26
					c-4.08-1.8-8.11-3.58-12.15-5.27c-0.21-0.09-0.41-0.18-0.62-0.27c-4.8-2.14-9.68-4.15-14.48-6.1c-5.01-2.1-9.7-4-14.38-5.9
					l-0.97-0.4c-25.3-10.17-51.4-19.72-77.5-28.35c-3.53-1.24-6.5-2.18-9.44-3.12l-1.43-0.46c-4.22-1.4-8.06-2.64-11.9-3.81
					c-16.54-5.25-33.03-10.11-49.33-14.55l-2-0.55c-2.69-0.74-5.34-1.47-8.04-2.16c-7.12-1.9-13.78-3.58-20.31-5.2l-1.73-0.42
					c-2.62-0.65-5.21-1.29-7.8-1.88c-9.42-2.29-18.54-4.34-28.26-6.37l-3.37-0.69c-1.73-0.36-3.44-0.72-5.14-1.03
					c-13.52-2.74-25.94-4.95-37.53-6.69c-3.4-0.54-6.46-0.98-9.46-1.36c-13.15-1.79-24.31-2.92-33.47-3.4
					c-46.93-2.61-91.53-1.33-138.76,0.03c-140.06,4.02-298.8,8.59-592.26-83.64c-385.9-121.19-746.34-15.76-864.79,18.9
					c-52.98,15.47-138.31,27.51-228.65,40.26c-144.97,20.46-309.28,43.64-379.2,85.07c-103.91,61.56-143.46,202.08-92,326.87
					l0.8,1.88c0.44,1.04,0.87,2.08,1.36,3.12c0.15,0.32,0.29,0.64,0.43,0.97c0.55,1.3,1.16,2.55,1.76,3.8
					c0.11,0.24,0.33,0.7,0.44,0.94c0.47,1.05,1.01,2.1,1.53,3.13l0.63,1.26c0.97,1.88,2.12,4.11,3.33,6.34
					c2.05,3.74,4.29,7.52,6.58,11.25c0.83,1.37,1.64,2.6,2.44,3.83c2.05,3.14,3.98,6,5.97,8.8c7.17,10.12,15.23,20.05,23.94,29.54
					c2.64,2.83,5.53,5.85,8.42,8.8c4.33,4.41,8.68,8.6,12.83,12.39c3.07,2.87,5.9,5.39,8.73,7.79c1.82,1.58,3.19,2.77,4.63,3.97
					c4.3,3.68,8.54,7.11,13.67,11.07l4.59,3.49c8.71,6.65,17.79,13.07,27.2,19.23c1.12,0.76,1.82,1.2,2.52,1.65l2.16,1.38
					c1.31,0.86,2.73,1.74,4.13,2.62l3.96,2.51c5.69,3.56,11.53,6.97,17.11,10.18l1.09,0.61c2.84,1.59,5.57,3.12,8.21,4.55
					c26.2,14.38,44.75,21.78,44.93,21.85c7.81,3.09,13.94,9.38,16.82,17.27c2.88,7.89,2.26,16.64-1.73,24.04
					c-0.59,1.1-1.19,2.28-1.74,3.55c-0.4,0.91-0.7,1.6-0.96,2.3c-0.1,0.27-0.2,0.53-0.31,0.8c-0.33,0.83-0.62,1.67-0.91,2.54
					c-0.16,0.49-0.33,0.96-0.52,1.44c-0.2,0.53-0.36,1.09-0.54,1.68c-0.19,0.63-0.4,1.25-0.63,1.87c-0.33,0.87-0.55,1.8-0.8,2.71
					c-1.23,4.34-2.3,8.67-3.2,13.01c-0.73,3.54-1.48,7.37-2.09,11.26c-0.04,0.26-0.08,0.52-0.13,0.78c-0.26,1.4-0.46,2.85-0.67,4.3
					c-0.02,0.13-0.07,0.51-0.1,0.64c-1.32,8.36-2.42,17.4-3.36,27.62c-0.32,3.56-0.65,7.21-0.91,10.99l-0.62,9.06
					c-0.47,6.92-0.87,14.01-1.13,21.3l-0.41,11.83c-3.69,130.08,14.2,322.44,43.52,467.6c34.74,171.49,87.09,485.54,47.33,661.91
					c-13.78,61.29-55.74,247.84-7.69,309.95c10.54,13.62,25.03,20.28,45.61,20.96c15.8,0.47,28.11-4.51,38.71-15.79
					c43.3-46.11,41.71-172.17,37.45-216.86c-1.4-14.7,8.31-28.18,22.71-31.48c14.41-3.31,29.01,4.58,34.15,18.43
					c6.91,18.61,169.61,457.89,207.63,640.38c14.59,69.89,15.08,145.42,15.52,212.05c0.36,53.82,0.69,104.65,8.79,138.46
					c8.97,37.43,23.01,37.43,32.3,37.43c6.82,0,11.48-2.22,16.07-7.64c28.9-34.16,25.11-149,8.54-247.67
					c-2.67-15.92,7.98-31.03,23.88-33.84c15.9-2.8,31.09,7.71,34.05,23.58c28.6,153.6,128.51,283.35,129.51,284.64
					c3.26,4.19,5.34,9.19,5.99,14.46c22.62,181.98,95.29,237.11,153.67,281.41c31.95,24.24,62.12,47.14,75.21,85.26
					c2.81,8.2,5.06,17.5,6.85,28.41c0.38,1.89,0.68,3.8,0.89,5.77l0.77,5.51c0.27,2.07,0.51,4.12,0.69,6.1
					c0.93,8.5,1.51,17.28,1.95,24.78l0.33,5.98c0.02,0.34,0.04,0.69,0.05,1.03l0.69,18.45c0.01,0.34,0.02,0.67,0.02,1v0.37
					c0.14,4.41,0.21,8.87,0.29,13.4l0.28,19.35c0.14,11.81,0.28,23.79,0.53,35.7l0.21,8.33c0.01,0.24,0.01,0.48,0.01,0.72
					c0,1.37,0.06,2.69,0.11,4.05l-29.37,1.91l29.39-1.18c0.14,3.5,0.28,6.94,0.35,10.31c0.34,10.08,0.89,19.92,1.63,28.86
					c0.4,4.88,0.87,9.62,1.33,14.28c0.02,0.25,0.05,0.5,0.06,0.75c0.08,1.08,0.2,2.16,0.36,3.2c0.06,0.4,0.12,0.8,0.16,1.21
					c0.78,6.87,1.7,13.04,2.83,18.86c0.05,0.26,0.1,0.53,0.14,0.78c0.21,1.25,0.48,2.51,0.74,3.76c0.27,1.3,0.53,2.58,0.85,3.86
					c2.58,11.3,5.6,20.27,9.13,27.28c0.1,0.19,0.19,0.38,0.28,0.58c0.29,0.61,0.6,1.22,0.95,1.8c0.19,0.31,0.36,0.62,0.54,0.94
					c0.47,0.85,0.99,1.64,1.5,2.45c1.63,2.53,3.49,4.82,5.46,6.69c0.2,0.19,0.4,0.38,0.59,0.57c0.08,0.07,0.44,0.39,0.53,0.46
					c2.37,2,4.92,3.39,7.8,4.26c0.41,0.12,0.82,0.25,1.22,0.4c0.17,0.04,0.34,0.08,0.51,0.12l0.56,0.11
					C1816.27,3926.67,1816.76,3926.75,1817.25,3926.85z M1819.06,3927.26c0.01,0,0.01,0,0.02,0
					C1819.07,3927.26,1819.06,3927.26,1819.06,3927.26z M1813.95,3926.2c0.16,0.04,0.32,0.07,0.48,0.1
					C1814.28,3926.28,1814.11,3926.24,1813.95,3926.2z M3302.48,1025.65L3302.48,1025.65L3302.48,1025.65z M3303.58,1023.3
					c-0.02,0.02-0.03,0.05-0.04,0.08C3303.55,1023.35,3303.56,1023.32,3303.58,1023.3z M3463.4,470.76
					c0.03,0.02,0.05,0.05,0.08,0.08C3463.45,470.81,3463.43,470.78,3463.4,470.76z M3439.21,450.6c0.02,0.01,0.04,0.02,0.06,0.04
					C3439.24,450.62,3439.23,450.61,3439.21,450.6z M3438.53,450.13c0.21,0.15,0.44,0.3,0.67,0.46
					C3438.98,450.44,3438.75,450.29,3438.53,450.13z"/>
			</g>
			<g>
				<path class="st2" d="M3156.75,1790.45c-73.18-42.22,14.03-150.36-10.78-208.75c-6.08-14.24-26.05-30.89-52.93-47.89
					c-83.47-53-232.8-109.87-232.8-109.87c-15.55,95.29-75.53,246.48-120.37,350.96c-32.06,74.56-104,124.31-185.05,127.77
					c-107.66,4.63-204.33-2.35-288.84-15.62c-39.46-6.15-76.29-13.75-110.42-22.11c-36.69-8.98-70.21-18.93-100.4-29.09
					c-31.23-10.5-59.01-21.35-83.06-31.65c-23.15-9.88-44.02-23.49-62.05-40.01c-39.46-36-65.37-85.62-71.8-140.21
					c-17.28-147.6-15.13-292.5-13.06-354.42v-0.21c0.42-12.23,0.83-21.21,1.1-26.33c0.21-3.11,0.28-4.77,0.28-4.77
					c-120.37-60.33-197.08-34-218.5-24.05c-4.08,1.87-6.15,3.18-6.15,3.18c-15.55,185.33-62.54,333.62-98.47,424.07
					c-1.17,2.9-2.35,5.8-3.46,8.57c-22.94,56.46-74.91,95.57-135.37,103.03c-87.97,10.85-168.54,15.27-240.61,15.62
					c-42.36,0.28-81.75-0.97-117.96-3.04c-46.02-2.76-86.79-6.98-121.96-11.68c-31.1-4.22-57.7-8.78-79.6-13.06
					c-30.61-6.01-56.94-23.56-74.49-48.16c-8.22-11.47-14.51-24.46-18.38-38.56c-66.13-240.2-68-448.26-60.88-566.15
					c3.59-59.7,50.58-107.8,110.22-112.7c97.92-8.02,186.37-10.71,265.76-9.74c64.47,0.76,122.93,4.01,175.52,8.85
					c44.29,4.01,84.44,9.19,120.58,15c42.22,6.77,78.91,14.3,110.29,21.91c78.22,18.93,123.07,37.94,137.03,44.36
					c3.18,1.38,4.77,2.21,4.77,2.21c128.25-42.08,245.03,7.74,272.33,20.94c3.94,1.87,6.01,3.04,6.01,3.04
					c115.05-21.63,230.73-27.29,343.85-21.21c56.52,3.04,112.36,9.05,167.16,17.48c35.38,5.32,70.28,11.75,104.62,19
					c36.9,7.81,73.18,16.65,108.7,26.26c116.37,31.51,224.37,71.8,319.52,114.64c128.18,57.77,232.94,120.24,302.66,172.41
					c48.02,35.93,79.4,66.89,90.45,88.1c7.19,13.75,11.89,28.88,14.51,44.71C3324.32,1663.78,3221.49,1827.76,3156.75,1790.45z"/>
			</g>
			<g class="st4">
				<path class="st5" d="M3305.89,1598.35c-0.29-2.87-0.74-5.74-1.18-8.6c-2.65-15.81-7.35-30.96-14.56-44.72
					c-11.03-21.18-42.44-52.14-90.46-88.11c-69.72-52.14-174.46-114.58-302.65-172.4c-95.1-42.8-203.14-83.11-319.49-114.59
					c-35.52-9.63-71.78-18.46-108.7-26.26c-34.35-7.28-69.21-13.68-104.58-19.05c-54.87-8.39-110.69-14.42-167.17-17.43
					c-113.12-6.11-228.81-0.44-343.84,21.18c0,0-2.13-1.17-6.03-3.01c-27.29-13.24-144.08-63.03-272.35-20.96
					c0,0-1.54-0.81-4.78-2.21c-13.9-6.4-58.76-25.45-137.02-44.35c-31.33-7.65-68.03-15.15-110.25-21.92
					c-36.19-5.81-76.27-11.03-120.62-15c-52.59-4.86-111.06-8.09-175.49-8.83c-79.43-0.96-167.84,1.69-265.8,9.71
					c-59.57,4.93-106.57,53.03-110.17,112.75c-1.25,21.62-2.28,46.26-2.65,73.69c-0.66-46.41,0.66-86.93,2.65-120.18
					c3.6-59.72,50.6-107.82,110.17-112.75c97.97-8.02,186.37-10.74,265.8-9.71c64.43,0.74,122.9,3.97,175.49,8.82
					c44.35,3.97,84.43,9.19,120.62,15c42.22,6.77,78.92,14.27,110.25,21.92c78.26,18.9,123.12,37.88,137.02,44.35
					c3.24,1.4,4.78,2.21,4.78,2.21c128.27-42.07,245.06,7.72,272.35,20.96c3.9,1.84,6.03,3.02,6.03,3.02
					c115.03-21.62,230.72-27.29,343.84-21.26c56.48,3.09,112.31,9.12,167.17,17.5c35.38,5.37,70.24,11.77,104.58,19.05
					c36.92,7.79,73.18,16.62,108.7,26.26c116.35,31.48,224.39,71.78,319.49,114.59c128.19,57.81,232.93,120.25,302.65,172.4
					c48.03,35.97,79.43,66.93,90.46,88.11c7.21,13.75,11.92,28.91,14.56,44.72C3307.58,1560.91,3307.8,1579.59,3305.89,1598.35z"/>
			</g>
			<g>
				<path class="st2" d="M1822.87,3986.09c-26.89,0-45.19-10.66-56.26-20.36c-45.86-40.14-46.96-128.31-48.02-213.58
					c-0.57-45.63-1.16-92.82-9.69-117.66c-7.27-21.17-27.34-36.4-55.12-57.48c-62.84-47.68-148.6-112.74-175.48-313.18
					c-11.16-15.14-38.9-54.67-67.15-109.49c-4.45,36.95-14.27,69.62-32.54,91.21c-15.76,18.63-36.85,28.48-60.99,28.48
					c-31.81,0-73.16-14.32-89.51-82.56c-9.68-40.37-10.02-92-10.41-151.78c-0.42-63.88-0.9-136.28-14.29-200.43
					c-23.92-114.82-101.52-342.2-154.14-490.59c-7.63,40.94-21.79,81.17-47.27,108.34c-22.08,23.54-50.87,35.33-83.57,34.37
					c-37.85-1.25-69.04-16.38-90.23-43.77c-57.26-74.03-33.73-222.96-3.17-358.88c37.35-165.71-13.8-470.43-47.61-637.32
					c-36.8-182.05-63.31-485.56-29.97-605.49c-7.25-3.54-15.71-7.86-25.04-12.97c-8.11-4.44-13.66-12.44-14.99-21.59
					c-1.33-9.15,1.73-18.4,8.25-24.96c101.9-102.54,330.16-285.08,714.05-355.62c477.56-87.76,1034.31,25.47,1654.79,336.51
					c3.84,1.92,7.21,4.67,9.87,8.03c5.58,7.04,7.63,16.28,5.58,25.03c-0.3,1.3-30.3,130.8-17.06,223.33l2.17,14.96
					c14.82,101.76,35.12,241.12-70.3,277.65c-42.92,14.87-77.04,8.34-102.56-6.6c-7.08,69.43-26.96,179.99-82.22,297.7
					c-28.54,60.84-57.95,110.93-86.4,159.36c-57.57,98.04-107.3,182.7-118.01,313.35c-5.01,61.3,0.94,131.73,6.7,199.85
					c13.05,154.45,26.54,314.15-100.15,353.04c-57.15,17.54-93.89,1.4-114.65-15.23c-16.93-13.56-29.07-31.79-37.74-51.68
					c-7.59,32.11-14.19,65.73-17.21,95.2c-2.56,24.83-3.21,48.46-3.85,71.31c-1.83,66.16-3.57,128.66-60.39,154.64
					c-25.54,11.69-52.41,10.24-75.66-4.09c-9.13-5.63-17.55-13.17-25.07-22.25c-5.97,54.6-8.88,125.28,0.5,200.84
					c21.62,174.06,27.04,343.61-78.73,405.17c-53.24,30.99-94.6,9.12-124.8-6.84c-18.49-9.78-30.4-15.67-41.35-13.68
					c-5.27,0.95-13.12,3.54-20.72,15.12c-29.63,45.14-22.27,165.95,0.31,261.94l0.22,0.95c11.31,48.17,34.83,148.41-9.39,211.68
					c-19.57,27.99-49.07,44.55-87.67,49.21C1831.38,3985.83,1827.02,3986.09,1822.87,3986.09z M1371.27,2925.58
					c13.9,0,26.25,9.9,28.89,24.04c28.69,154.1,128.5,283.34,129.5,284.63c3.27,4.19,5.35,9.19,6,14.47
					c22.62,181.98,95.28,237.12,153.67,281.42c31.95,24.24,62.12,47.13,75.2,85.25c11.59,33.77,12.21,83.45,12.87,136.03
					c0.82,65.58,1.84,147.18,27.94,170.04c3.86,3.38,10.02,7.03,23.54,5.41c21.58-2.61,36.79-10.62,46.49-24.51
					c29.16-41.72,8.96-127.78,0.33-164.53l-0.22-0.93c-5.24-22.27-49.58-220.3,7.78-307.69c14.63-22.28,35.19-36.37,59.47-40.74
					c31.48-5.7,56.89,7.72,79.29,19.57c28.83,15.24,43.75,21.95,67.71,8.01c76.46-44.5,68.15-200.42,49.93-347.06
					c-22.03-177.37,18.13-325.28,19.85-331.49c3.87-13.99,17.34-23.06,31.78-21.37c14.41,1.69,25.44,13.64,25.97,28.14
					c1.42,38.75,17,76.91,36.24,88.78c6.51,4.01,12.58,4.21,20.31,0.67c22.41-10.25,24.42-44,26.05-102.77
					c0.63-22.82,1.35-48.69,4.13-75.69c10.09-98.66,55.1-232.9,57.01-238.56c4.74-14.06,19.23-22.38,33.77-19.42
					c14.54,2.97,24.59,16.31,23.44,31.11c-2.11,28.03-0.03,114.63,36.09,143.48c5.25,4.2,21.21,16.95,60.56,4.88
					c75.67-23.23,72.4-130.64,58.79-291.84c-5.96-70.51-12.11-143.42-6.71-209.6c11.81-144.05,64.69-234.09,125.92-338.35
					c27.76-47.28,56.48-96.17,83.87-154.56c83.69-178.3,80.47-343.16,80.42-344.8c-0.37-14.29,9.59-26.79,23.6-29.62
					c14.03-2.81,28.03,4.83,33.22,18.14c3.68,9,25.38,54.03,81.53,34.57c54.98-19.05,46.72-108,31.35-213.58l-2.19-15.1c0,0,0,0,0,0
					c-11.37-79.48,4.59-178.2,13.2-222.23c-1338.75-663.13-2032.1-211.43-2250.87-10.32c5.4,2.42,8.49,3.66,8.57,3.69
					c7.8,3.1,13.93,9.4,16.8,17.3c2.87,7.9,2.24,16.65-1.76,24.04c-0.58,1.08-1.17,2.24-1.71,3.49
					c-34.57,78.19-14.44,390.65,26.22,591.76c34.74,171.49,87.09,485.54,47.34,661.92c-13.78,61.29-55.74,247.84-7.69,309.96
					c10.54,13.62,25.03,20.28,45.61,20.96c15.79,0.46,28.11-4.51,38.71-15.79c43.3-46.11,41.72-172.17,37.45-216.86
					c-1.4-14.71,8.31-28.18,22.71-31.48c14.41-3.31,29.01,4.58,34.15,18.43c6.91,18.61,169.6,457.89,207.62,640.38
					c14.59,69.89,15.08,145.42,15.52,212.05c0.36,53.82,0.69,104.65,8.79,138.46c8.97,37.43,23.01,37.43,32.3,37.43
					c6.82,0,11.48-2.22,16.07-7.64c28.9-34.17,25.12-149.01,8.54-247.66c-2.68-15.92,7.98-31.03,23.88-33.85
					C1367.84,2925.73,1369.57,2925.58,1371.27,2925.58z"/>
			</g>
			<defs>
				<filter id="Adobe_OpacityMaskFilter" filterUnits="userSpaceOnUse" x="1910.02" y="1060.67" width="454.2" height="775.18">
					<feFlood  style="flood-color:white;flood-opacity:1" result="back"/>
					<feBlend  in="SourceGraphic" in2="back" mode="normal"/>
				</filter>
			</defs>
			<mask maskUnits="userSpaceOnUse" x="1910.02" y="1060.67" width="454.2" height="775.18" id="SVGID_1_">
				<g class="st6">
					<defs>
						
							<filter id="Adobe_OpacityMaskFilter_1_" filterUnits="userSpaceOnUse" x="1910.02" y="1060.67" width="454.2" height="775.18">
							<feFlood  style="flood-color:white;flood-opacity:1" result="back"/>
							<feBlend  in="SourceGraphic" in2="back" mode="normal"/>
						</filter>
					</defs>
					<mask maskUnits="userSpaceOnUse" x="1910.02" y="1060.67" width="454.2" height="775.18" id="SVGID_1_">
						<g class="st7">
						</g>
					</mask>
					
						<linearGradient id="SVGID_2_" gradientUnits="userSpaceOnUse" x1="2280.1448" y1="2946.0728" x2="1979.4893" y2="2178.2629" gradientTransform="matrix(1 0 0 -1 0 4002)">
						<stop  offset="0" style="stop-color:#FFFFFF"/>
						<stop  offset="1" style="stop-color:#000000"/>
					</linearGradient>
					<path class="st8" d="M2364.23,1078.15l-309.09,757.69c-31.23-10.5-59.01-21.35-83.06-31.65
						c-23.15-9.88-44.02-23.49-62.05-40.01l287.05-703.52C2253.59,1063.71,2309.43,1069.72,2364.23,1078.15z"/>
				</g>
			</mask>
			
				<linearGradient id="SVGID_3_" gradientUnits="userSpaceOnUse" x1="2280.1448" y1="2946.0728" x2="1979.4893" y2="2178.2629" gradientTransform="matrix(1 0 0 -1 0 4002)">
				<stop  offset="0" style="stop-color:#FFFFFF"/>
				<stop  offset="1" style="stop-color:#F0E1E1"/>
			</linearGradient>
			<path class="st9" d="M2364.23,1078.15l-309.09,757.69c-31.23-10.5-59.01-21.35-83.06-31.65c-23.15-9.88-44.02-23.49-62.05-40.01
				l287.05-703.52C2253.59,1063.71,2309.43,1069.72,2364.23,1078.15z"/>
			<defs>
				<filter id="Adobe_OpacityMaskFilter_2_" filterUnits="userSpaceOnUse" x="2155.54" y="1097.16" width="422" height="789.89">
					<feFlood  style="flood-color:white;flood-opacity:1" result="back"/>
					<feBlend  in="SourceGraphic" in2="back" mode="normal"/>
				</filter>
			</defs>
			<mask maskUnits="userSpaceOnUse" x="2155.54" y="1097.16" width="422" height="789.89" id="SVGID_4_">
				<g class="st10">
					<defs>
						<filter id="Adobe_OpacityMaskFilter_3_" filterUnits="userSpaceOnUse" x="2155.54" y="1097.16" width="422" height="789.89">
							<feFlood  style="flood-color:white;flood-opacity:1" result="back"/>
							<feBlend  in="SourceGraphic" in2="back" mode="normal"/>
						</filter>
					</defs>
					<mask maskUnits="userSpaceOnUse" x="2155.54" y="1097.16" width="422" height="789.89" id="SVGID_4_">
						<g class="st11">
						</g>
					</mask>
					
						<linearGradient id="SVGID_5_" gradientUnits="userSpaceOnUse" x1="2537.0244" y1="2889.8025" x2="2200.2388" y2="2135.4893" gradientTransform="matrix(1 0 0 -1 0 4002)">
						<stop  offset="0" style="stop-color:#FFFFFF"/>
						<stop  offset="1" style="stop-color:#000000"/>
					</linearGradient>
					<path class="st12" d="M2577.54,1123.41l-311.58,763.64c-39.46-6.15-76.29-13.75-110.42-22.11l313.3-767.78
						C2505.74,1104.96,2542.02,1113.81,2577.54,1123.41z"/>
				</g>
			</mask>
			
				<linearGradient id="SVGID_6_" gradientUnits="userSpaceOnUse" x1="2537.0244" y1="2889.8025" x2="2200.2388" y2="2135.4893" gradientTransform="matrix(1 0 0 -1 0 4002)">
				<stop  offset="0" style="stop-color:#FFFFFF"/>
				<stop  offset="1" style="stop-color:#FFFFFF"/>
			</linearGradient>
			<path class="st13" d="M2577.54,1123.41l-311.58,763.64c-39.46-6.15-76.29-13.75-110.42-22.11l313.3-767.78
				C2505.74,1104.96,2542.02,1113.81,2577.54,1123.41z"/>
			<g>
				<path class="st14" d="M3617.17,818.33c-71.38,258.99-287.39,218.29-287.39,218.29s-8.71-0.28-23.49-2.97
					c-1.24-0.21-2.56-0.42-3.8-0.69c-6.49-1.24-13.96-2.9-22.25-5.25c-0.14-0.07-0.21-0.07-0.35-0.07c-3.18-0.9-6.22-1.8-9.26-2.7
					c-1.17-0.28-2.35-0.62-3.46-1.04c-22.8-7.19-50.17-18.45-79.12-36.14c-12.92-7.81-26.12-17-39.39-27.57
					c0,0-116.3-65.37-317.73-132.19c-201.5-66.75-394.01-134.75-394.01-134.75s-131.29-50.58-371.63-35.45
					c-240.33,15.06-626.68,44.29-779.53-54.38c0,0-99.44,109.39-220.23,173.31c-175.93,93.08-281.31,54.66-280.83,53.76
					c0,0-19.83-7.81-48.16-23.36c-3.18-1.73-6.5-3.59-9.95-5.53c-5.87-3.39-12.02-6.98-18.31-10.92c-2.7-1.73-5.53-3.46-8.29-5.25
					c-1.59-1.04-3.18-2-4.7-3.04c-9.4-6.22-19.07-12.99-28.75-20.32c-1.66-1.24-3.25-2.49-4.91-3.73
					c-4.84-3.8-9.67-7.74-14.51-11.75c-1.66-1.38-3.25-2.76-4.84-4.15c-3.18-2.76-6.43-5.6-9.54-8.5
					c-4.77-4.35-9.47-8.91-14.03-13.54c-3.04-3.11-6.08-6.29-9.05-9.47c-9.33-10.16-18.17-21.01-26.26-32.41
					c-2.21-3.11-4.35-6.29-6.43-9.47c-1.04-1.59-2.07-3.18-3.04-4.77c-2.56-4.15-5.04-8.36-7.39-12.65
					c-1.31-2.42-2.56-4.84-3.8-7.26c-0.9-1.8-1.87-3.66-2.7-5.53c-0.83-1.73-1.66-3.46-2.42-5.25c-0.97-2.07-1.8-4.15-2.7-6.22
					c-24.32-58.87-30.47-122.31-19.35-181.04c3.11-16.79,7.6-33.17,13.54-48.92c20.45-54.8,57.42-102.27,110.01-133.43
					c120.72-71.52,480.18-89,614.58-128.25c134.4-39.32,493.52-140.69,881.87-18.73c388.28,122.03,536.16,71.87,723.76,82.3
					c128.8,7.19,481.36,106.28,653.28,298.38c0.07,0,0.07,0,0.14,0.07c18.59,20.73,35.03,42.57,48.85,65.51
					c1.1,1.87,2.21,3.73,3.32,5.6c9.47,16.38,17.69,33.24,24.32,50.72c6.7,17.55,11.89,35.66,15.34,54.38
					C3632.99,718.9,3631.33,766.99,3617.17,818.33z"/>
			</g>
			<g>
				<g class="st4">
					<path class="st5" d="M3584.97,568.88c-1.1-1.87-2.21-3.73-3.32-5.6c-13.82-22.94-30.27-44.78-48.85-65.51
						c-0.07-0.07-0.07-0.07-0.14-0.07c-171.92-192.1-524.48-291.19-653.28-298.38c-187.61-10.43-335.49,39.73-723.76-82.3
						c-149.88-47.06-295.34-60.81-425.25-57.77c-1.31,0.07-2.69,0.07-4.01,0.14c-204.88,5.39-370.59,52.38-452.61,76.36
						C1139.34,175,779.88,192.48,659.16,264c-52.59,31.16-89.55,78.64-110.01,133.43c-5.94,15.76-10.43,32.13-13.54,48.92
						c53.41-63.5,128.74-112.01,207.03-141.38c134.47-50.51,280.62-57.63,422.21-81.47c144.28-24.32,287.74-66.54,431.88-88.17
						c7.6,34.76,69.52,61.85,144.7,61.85c78.29,0,141.93-29.37,145.18-66.2c214.35,33.17,412.88,149.74,629.86,163.56
						c124.31,7.88,248.76-18.45,373.21-12.78c269.42,12.23,620.6,171.02,719.55,337.77
						C3602.65,602.12,3594.43,585.26,3584.97,568.88z"/>
				</g>
			</g>
			<g class="st1">
				<path class="st2" d="M3617.17,818.33c-71.38,258.99-287.39,218.29-287.39,218.29s-8.71-0.28-23.49-2.97
					c-1.24-0.21-2.56-0.42-3.8-0.69c-6.49-1.24-13.96-2.9-22.25-5.25c-0.14-0.07-0.21-0.07-0.35-0.07c-3.18-0.9-6.22-1.8-9.26-2.7
					c-1.17-0.28-2.35-0.62-3.46-1.04c-22.8-7.19-50.17-18.45-79.12-36.14c-12.92-7.81-26.12-17-39.39-27.57
					c0,0-116.3-65.37-317.73-132.19c-201.5-66.75-394.01-134.75-394.01-134.75s-131.29-50.58-371.63-35.45
					c-240.33,15.06-626.68,44.29-779.53-54.38c0,0-99.44,109.39-220.23,173.31c-175.93,93.08-281.31,54.66-280.83,53.76
					c0,0-19.83-7.81-48.16-23.36c-3.18-1.73-6.5-3.59-9.95-5.53c-5.87-3.39-12.02-6.98-18.31-10.92c-2.7-1.73-5.53-3.46-8.29-5.25
					c-1.59-1.04-3.18-2-4.7-3.04c-9.4-6.22-19.07-12.99-28.75-20.32c-1.66-1.24-3.25-2.49-4.91-3.73
					c-4.84-3.8-9.67-7.74-14.51-11.75c-1.66-1.38-3.25-2.76-4.84-4.15c-3.18-2.76-6.43-5.6-9.54-8.5
					c-4.77-4.35-9.47-8.91-14.03-13.54c-3.04-3.11-6.08-6.29-9.05-9.47c-9.33-10.16-18.17-21.01-26.26-32.41
					c-2.21-3.11-4.35-6.29-6.43-9.47c-1.04-1.59-2.07-3.18-3.04-4.77c-2.56-4.15-5.04-8.36-7.39-12.65
					c-1.31-2.42-2.56-4.84-3.8-7.26c-0.9-1.8-1.87-3.66-2.7-5.53c-0.83-1.73-1.66-3.46-2.42-5.25c-0.97-2.07-1.8-4.15-2.7-6.22
					c-31.23-75.67-32.48-158.93-5.8-229.97c12.37,95.98,62.88,187.61,142.62,242.96c131.57,91.35,327.82,73.39,440.66-40.29
					c-61.43-54.87-94.12-140.14-85.13-221.95c99.85,125.76,273.64,163.91,433.95,173.1c213.11,12.3,428.15-12.23,633.04-71.8
					c58.81-17.07,90.45-80.92,68.62-138.2c-5.94-15.62-11.89-31.23-17.83-46.85c196.94,224.03,480.18,369.55,772.97,406.45
					c46.44,5.87,91.63-15.41,118.44-53.83c51.34-73.73,125.9-131.36,210.69-161.14c-47.06,58.81-90.94,123.48-104.89,197.56
					c-13.96,74.01,8.57,159.28,71.38,200.88c55.9,36.97,137.03,29.78,185.47-16.58c48.51-46.3,59.36-127.01,26.67-184.29
					c37.04,21.35,88.17,14.03,117.75-16.79c22.46-23.43,30.82-58.74,23.49-90.18c13.27,32.2,26.19,64.68,37.59,97.57
					C3632.99,718.9,3631.33,766.99,3617.17,818.33z"/>
			</g>
			<g>
				<path class="st2" d="M3359.74,1068c-16.27,0-27.97-1.37-32.88-2.07c-3.86-0.23-12.95-0.99-25.86-3.34
					c-1.46-0.24-2.97-0.5-4.42-0.81c-8.1-1.56-15.8-3.37-23.49-5.52c-0.4-0.1-0.8-0.2-1.19-0.31c-3.07-0.87-6.01-1.73-8.94-2.6
					c-1.8-0.45-3.56-0.98-5.25-1.58c-29.42-9.33-58.02-22.41-85-38.9c-13.42-8.11-27.03-17.57-40.38-28.08
					c-15.86-8.63-128.51-68.44-310.66-128.87c-199.45-66.07-392.62-134.25-394.55-134.93c-0.26-0.09-0.52-0.19-0.78-0.29
					c-1.21-0.46-129.42-48.04-359.2-33.54l-30.61,1.93c-233.18,14.82-580.41,36.87-745.46-48.68
					c-33.81,34.22-115.63,111.43-211.77,162.31C921.89,886.01,809.77,873,774.08,857.48l-0.15,0.38
					c-0.88-0.35-21.91-8.68-51.53-24.94c-2.8-1.52-5.81-3.2-8.93-4.95l-1.25-0.7c-6.49-3.74-12.95-7.52-19.55-11.65l-3.69-2.33
					c-1.67-1.05-3.36-2.11-5.02-3.19l-1.58-1.01c-1.24-0.78-2.46-1.57-3.65-2.38c-10.26-6.79-20.45-13.98-29.94-21.17l-4.81-3.66
					c-0.18-0.13-0.35-0.27-0.52-0.4c-5.03-3.95-10.07-8.05-15.1-12.23c-1.8-1.5-3.47-2.95-5.15-4.41
					c-3.66-3.19-7.17-6.25-10.52-9.38c-4.68-4.27-9.78-9.2-14.92-14.41c-3.26-3.33-6.46-6.67-9.58-10.02
					c-10.56-11.49-20.18-23.37-28.77-35.48c-2.41-3.4-4.78-6.9-7.06-10.4c-1.27-1.95-2.45-3.77-3.55-5.58
					c-2.71-4.39-5.45-9.05-8.05-13.78c-1.48-2.72-2.83-5.34-4.17-7.95l-0.65-1.29c-0.87-1.74-1.76-3.52-2.56-5.3
					c-0.91-1.91-1.79-3.77-2.61-5.67c-0.71-1.55-1.37-3.1-2.03-4.65l-0.78-1.83c-62.74-152.12-12.69-324.06,116.2-400.42
					c80.03-47.42,250.53-71.48,400.97-92.71c88.18-12.45,171.47-24.2,220.37-38.48c122.67-35.88,496-145.1,898.93-18.55
					c284.02,89.27,437.5,84.84,572.94,80.96c48.5-1.39,94.31-2.71,143.65,0.03c122.97,6.86,490.53,104.91,672.45,306.89
					c0.2,0.2,0.4,0.4,0.6,0.61c0.22,0.23,0.45,0.47,0.66,0.71c94.75,105.87,125.31,222.95,90.81,348v-0.01
					C3585.93,1042.38,3430.14,1068,3359.74,1068z M3288.25,999.4c6.44,1.83,12.91,3.35,19.76,4.66c0.3,0.06,0.6,0.12,0.9,0.19
					c0.55,0.12,1.13,0.2,1.69,0.29c0.16,0.03,0.8,0.13,0.95,0.16c12.05,2.19,19.23,2.51,19.3,2.52c1.42,0.06,2.97,0.23,4.37,0.49
					c7.63,1.37,190.57,31.42,253.58-197.2c0,0,0,0,0-0.01c28.7-104.05,2.84-202.26-76.88-291.93c-0.41-0.4-0.81-0.82-1.2-1.26
					c-169.96-189.9-516.94-282.15-633-288.63c-46.85-2.61-91.46-1.33-138.68,0.03c-140.06,4.02-298.8,8.59-592.26-83.64
					c-385.89-121.19-746.34-15.75-864.79,18.9c-52.98,15.47-138.31,27.51-228.65,40.26c-144.97,20.46-309.28,43.65-379.2,85.07
					c-103.91,61.56-143.46,202.08-92,326.87l0.78,1.83c0.45,1.06,0.89,2.11,1.38,3.17c0.15,0.32,0.29,0.64,0.43,0.97
					c0.57,1.35,1.2,2.64,1.83,3.95c0.11,0.24,0.26,0.55,0.37,0.79c0.48,1.07,1.03,2.14,1.55,3.19l0.59,1.17
					c1,1.94,2.14,4.16,3.34,6.38c2.05,3.74,4.28,7.51,6.58,11.23c0.89,1.46,1.72,2.73,2.56,4.01c1.94,2.97,3.86,5.83,5.85,8.62
					c7.18,10.13,15.23,20.06,23.95,29.55c2.64,2.83,5.53,5.85,8.42,8.8c4.33,4.41,8.68,8.6,12.83,12.39
					c3.1,2.89,6.09,5.49,9.02,8.04c1.54,1.33,2.91,2.53,4.34,3.72c4.54,3.76,9.13,7.5,13.71,11.11l4.54,3.45
					c8.61,6.52,17.77,12.99,27.32,19.31c1.01,0.68,1.71,1.12,2.43,1.58l2.12,1.36c1.36,0.88,2.78,1.77,4.18,2.65l3.93,2.48
					c5.69,3.56,11.53,6.97,17.11,10.18l0.93,0.52c2.9,1.62,5.69,3.19,8.37,4.65c26.2,14.38,44.74,21.77,44.92,21.84
					c0.57,0.23,1.12,0.47,1.67,0.72c8.93,2.71,102.14,27.53,254.58-53.13c114.61-60.65,211.26-166.04,212.22-167.1
					c9.68-10.64,25.64-12.72,37.72-4.92c138.37,89.33,495.06,66.67,731.08,51.68l30.65-1.94c239.32-15.06,373.29,33.3,383.59,37.19
					c9.03,3.19,198.09,69.83,393.15,134.45c201.81,66.95,318.04,131.75,322.89,134.47c1.37,0.77,2.69,1.65,3.92,2.64
					c12.02,9.57,24.22,18.12,36.27,25.4c23.23,14.19,47.66,25.35,72.75,33.26c0.5,0.16,1,0.33,1.5,0.52
					c0.55,0.13,0.92,0.21,1.46,0.36c2.71,0.8,5.42,1.61,8.24,2.41C3287.56,999.22,3287.9,999.31,3288.25,999.4L3288.25,999.4z
					 M810.53,816.42c0.65,1.19,1.22,2.43,1.71,3.72l0.01,0C811.74,818.81,811.16,817.57,810.53,816.42z"/>
			</g>
			<g>
				<path class="st2" d="M3359.74,1068c-11.17,0-20.19-0.65-26.33-1.28c-2.67,0.37-5.41,0.39-8.17,0.01
					c-8.33-1.16-16.51-2.56-24.32-4.15c-1.81-0.3-3.33-0.57-4.78-0.9c-7.04-1.44-14.78-3.26-22.64-5.33
					c-0.54-0.12-1.08-0.26-1.62-0.41c-3.05-0.86-5.98-1.73-8.91-2.59c-1.75-0.44-3.45-0.95-5.1-1.53
					c-31.65-9.72-60.53-22.97-85.83-39.38c-32.71-21.2-48.02-40.48-49.66-42.6c-0.53-0.69-1.03-1.4-1.5-2.14
					c-3.9-6.13-94.1-152.44,27.46-365.38c55.03-96.41,134.38-158.03,223.43-173.51c65.88-11.45,131.03,5.18,178.97,45.65
					c1,0.77,1.96,1.61,2.86,2.51c0.38,0.39,0.76,0.78,1.12,1.18c94.75,105.87,125.31,222.95,90.81,348
					C3585.93,1042.38,3430.14,1068,3359.74,1068z M3328.64,1007.09c2.15,0,4.35,0.21,6.58,0.63c7.63,1.37,190.57,31.42,253.58-197.2
					c0,0,0,0,0-0.01c28.65-103.86,2.93-201.9-76.44-291.44c-35.05-29.38-81.33-40.85-130.53-32.3
					c-71.45,12.42-136.23,63.82-182.41,144.71c-98.38,172.34-38.09,288.71-29.66,303.37c2.87,3.26,13.88,15.01,34.27,28.22
					c20.9,13.56,45.02,24.55,71.7,32.69c0.58,0.18,1.16,0.37,1.73,0.59c0.55,0.13,0.94,0.21,1.48,0.37c2.82,0.83,5.48,1.62,8.21,2.4
					c0.2,0.05,0.39,0.1,0.59,0.15l0-0.01c7.08,1.87,14.02,3.51,20.64,4.88c1,0.22,1.62,0.3,2.21,0.4c0.38,0.06,1.22,0.21,1.6,0.29
					c4.26,0.87,8.66,1.68,13.17,2.41C3326.44,1007.14,3327.54,1007.09,3328.64,1007.09z"/>
			</g>
			<defs>
				<filter id="Adobe_OpacityMaskFilter_4_" filterUnits="userSpaceOnUse" x="729.99" y="965.59" width="472.24" height="788.37">
					<feFlood  style="flood-color:white;flood-opacity:1" result="back"/>
					<feBlend  in="SourceGraphic" in2="back" mode="normal"/>
				</filter>
			</defs>
			<mask maskUnits="userSpaceOnUse" x="729.99" y="965.59" width="472.24" height="788.37" id="SVGID_7_">
				<g class="st15">
					<defs>
						<filter id="Adobe_OpacityMaskFilter_5_" filterUnits="userSpaceOnUse" x="729.99" y="965.59" width="472.24" height="788.37">
							<feFlood  style="flood-color:white;flood-opacity:1" result="back"/>
							<feBlend  in="SourceGraphic" in2="back" mode="normal"/>
						</filter>
					</defs>
					<mask maskUnits="userSpaceOnUse" x="729.99" y="965.59" width="472.24" height="788.37" id="SVGID_7_">
						<g class="st16">
						</g>
					</mask>
					
						<linearGradient id="SVGID_8_" gradientUnits="userSpaceOnUse" x1="1122.7594" y1="3052.3293" x2="807.6119" y2="2279.9988" gradientTransform="matrix(1 0 0 -1 0 4002)">
						<stop  offset="0" style="stop-color:#FFFFFF"/>
						<stop  offset="1" style="stop-color:#000000"/>
					</linearGradient>
					<path class="st17" d="M1202.22,974.43l-318.14,779.53c-31.1-4.22-57.7-8.78-79.6-13.06c-30.61-6.01-56.94-23.56-74.49-48.16
						l296.72-727.15C1091.18,966.35,1149.64,969.6,1202.22,974.43z"/>
				</g>
			</mask>
			
				<linearGradient id="SVGID_9_" gradientUnits="userSpaceOnUse" x1="1122.7594" y1="3052.3293" x2="807.6119" y2="2279.9988" gradientTransform="matrix(1 0 0 -1 0 4002)">
				<stop  offset="0" style="stop-color:#FFFFFF"/>
				<stop  offset="1" style="stop-color:#FFFFFF"/>
			</linearGradient>
			<path class="st18" d="M1202.22,974.43l-318.14,779.53c-31.1-4.22-57.7-8.78-79.6-13.06c-30.61-6.01-56.94-23.56-74.49-48.16
				l296.72-727.15C1091.18,966.35,1149.64,969.6,1202.22,974.43z"/>
			<defs>
				<filter id="Adobe_OpacityMaskFilter_6_" filterUnits="userSpaceOnUse" x="1006.04" y="989.43" width="427.04" height="779.29">
					<feFlood  style="flood-color:white;flood-opacity:1" result="back"/>
					<feBlend  in="SourceGraphic" in2="back" mode="normal"/>
				</filter>
			</defs>
			<mask maskUnits="userSpaceOnUse" x="1006.04" y="989.43" width="427.04" height="779.29" id="SVGID_10_">
				<g class="st19">
					<defs>
						
							<filter id="Adobe_OpacityMaskFilter_7_" filterUnits="userSpaceOnUse" x="1006.04" y="989.43" width="427.04" height="779.29">
							<feFlood  style="flood-color:white;flood-opacity:1" result="back"/>
							<feBlend  in="SourceGraphic" in2="back" mode="normal"/>
						</filter>
					</defs>
					<mask maskUnits="userSpaceOnUse" x="1006.04" y="989.43" width="427.04" height="779.29" id="SVGID_10_">
						<g class="st20">
						</g>
					</mask>
					
						<linearGradient id="SVGID_11_" gradientUnits="userSpaceOnUse" x1="1387.0779" y1="3003.0874" x2="1064.8892" y2="2254.7971" gradientTransform="matrix(1 0 0 -1 0 4002)">
						<stop  offset="0" style="stop-color:#FFFFFF"/>
						<stop  offset="1" style="stop-color:#000000"/>
					</linearGradient>
					<path class="st21" d="M1433.09,1011.33L1124,1768.68c-42.36,0.28-81.75-0.97-117.96-3.04l316.76-776.21
						C1365.03,996.2,1401.72,1003.73,1433.09,1011.33z"/>
				</g>
			</mask>
			
				<linearGradient id="SVGID_12_" gradientUnits="userSpaceOnUse" x1="1387.0779" y1="3003.0874" x2="1064.8892" y2="2254.7971" gradientTransform="matrix(1 0 0 -1 0 4002)">
				<stop  offset="0" style="stop-color:#FFFFFF"/>
				<stop  offset="1" style="stop-color:#FFFFFF"/>
			</linearGradient>
			<path class="st22" d="M1433.09,1011.33L1124,1768.68c-42.36,0.28-81.75-0.97-117.96-3.04l316.76-776.21
				C1365.03,996.2,1401.72,1003.73,1433.09,1011.33z"/>
			<g>
				<g>
					<path class="st2" d="M3164.76,931.94c12.58,12.3,26.12,23.29,40.98,32.06c14.93,8.57,30.96,14.58,47.68,17.97
						c33.38,6.7,69.52,1.66,101.65-14.1c32.13-15.48,60.46-40.35,80.85-70.69c20.45-30.34,32.34-66.48,33.24-103.31
						c0.62-18.45-2-36.97-7.19-54.87c-4.42-17.9-13.41-33.79-25.29-47.68c-12.02-13.61-27.36-24.46-44.5-30.06
						c-17.21-5.53-35.93-5.32-53.07,1.38c-17,6.77-32.34,18.86-42.22,34.69c-9.74,15.69-13.96,35.45-8.5,53.48
						c5.6,17.9,19.07,33.51,36.14,42.7c16.93,9.12,38.35,11.68,56.39,2.9c-17.48,9.88-39.73,8.78-57.97,0.21
						c-18.31-8.57-33.72-24.05-41.18-43.6c-7.33-19.9-3.87-42.5,6.08-60.88c10.16-18.45,26.54-33.17,45.81-42.15
						c19.35-8.98,42.36-10.78,63.23-5.25c20.94,5.53,39.73,17.34,54.87,32.55c14.86,15.2,26.81,34.2,33.17,54.52
						c7.05,19.76,11.2,40.7,11.82,61.91c1.45,42.36-9.88,85.2-31.58,121.89c-21.7,36.69-53,68-91.07,89.21
						c-37.8,21.42-83.68,31.3-128.53,25.01c-22.32-3.11-44.22-9.95-64.26-19.97c-19.97-10.23-38.14-23.29-54.73-37.8
						c-11.47-10.09-12.65-27.57-2.56-39.04c10.09-11.47,27.57-12.65,39.04-2.56c0.35,0.35,0.69,0.62,1.04,0.97L3164.76,931.94z"/>
				</g>
			</g>
			<g>
				<path class="st2" d="M1111.95,1798.14c-35.57,0-70.9-1.03-107.58-3.12c-42.46-2.55-84.21-6.55-124.18-11.89
					c-28.37-3.85-55.72-8.33-81.35-13.35c-37.52-7.37-70.47-28.66-92.79-59.95c-10.38-14.47-18.07-30.59-22.8-47.86
					c-65.5-237.91-69.8-444.39-61.88-575.71c4.45-73.89,63.42-134.18,137.17-140.25c92.5-7.58,182.83-10.87,268.53-9.84
					c61.18,0.72,121.03,3.74,177.85,8.97c42.01,3.8,83.26,8.93,122.55,15.24c39.81,6.39,77.67,13.91,112.55,22.36
					c72.17,17.47,116.94,35.02,136.86,43.75c132.52-38.79,249.69,9.7,283.14,25.87c8.56,4.14,14.59,12.16,16.19,21.53
					c0.94,5.51,0.28,11.09-1.78,16.12c-3.16,21.12-14.52,99.16-18.04,152.27c-0.62,9.36-1.24,18.92-1.86,28.9
					c-1,16.05-14.64,28.41-30.78,27.55c-16.07-0.77-28.53-14.31-27.99-30.38c0.15-4.4,0.3-8.38,0.44-11.93
					c-85.28-38.05-141.91-27.75-166.54-19.22c-17.17,180.13-62.93,324.6-98.89,415.12l-3.48,8.64
					c-26.85,66.08-87.78,112.5-159.08,121.3c-82.1,10.13-164.22,15.45-244.07,15.84
					C1120.07,1798.12,1116.01,1798.14,1111.95,1798.14z M996.02,994.82c-74.76,0-152.87,3.3-232.67,9.83
					c-44.76,3.68-80.55,40.29-83.25,85.15c-7.66,126.88-3.49,326.42,59.88,556.57c2.9,10.55,7.58,20.37,13.92,29.22
					c13.6,19.06,33.56,31.99,56.26,36.44c24.49,4.79,50.7,9.09,77.88,12.78c38.51,5.14,78.82,9,119.78,11.47
					c39.52,2.26,77.47,3.23,116,2.98c77.6-0.37,157.39-5.55,237.2-15.4c50.14-6.19,92.95-38.72,111.71-84.91l3.44-8.52
					c35.57-89.54,81.24-234.48,96.43-415.5c0.77-9.17,5.79-17.45,13.56-22.38c1.13-0.72,4.34-2.65,9.66-5.09
					c21.27-9.89,94.65-35.92,205.7,7.45c3.89-37.07,9.17-75.45,12.48-98.38c-41.81-16.29-132.96-42.49-229.94-10.67
					c-7.52,2.47-15.73,1.8-22.75-1.86c-0.16-0.08-1.19-0.57-2.92-1.33c-11.99-5.52-55.24-24.12-132.22-42.75
					c-33.39-8.09-69.73-15.31-108.02-21.45c-37.97-6.1-77.86-11.06-118.57-14.74c-55.32-5.09-113.58-8.03-173.21-8.73
					C1016.31,994.88,1006.19,994.82,996.02,994.82z M1868.12,1099.53c-0.01,0.01-0.02,0.02-0.03,0.03
					C1868.1,1099.56,1868.11,1099.55,1868.12,1099.53z"/>
			</g>
			<g>
				<path class="st2" d="M1112.52,1798.14c-35.54,0-71.88-1.05-108.15-3.13c-42.46-2.55-84.21-6.55-124.18-11.89
					c-28.37-3.85-55.72-8.33-81.35-13.35c-37.52-7.36-70.47-28.65-92.79-59.95c-10.38-14.47-18.06-30.59-22.8-47.86
					c-65.5-237.91-69.8-444.39-61.88-575.71c4.45-73.89,63.42-134.18,137.17-140.25c92.5-7.58,182.83-10.87,268.53-9.84
					c61.18,0.72,121.03,3.74,177.85,8.97c42.01,3.8,83.26,8.93,122.55,15.24c39.76,6.38,77.63,13.9,112.55,22.36
					c79.9,19.34,126.2,38.77,142.4,46.23c7.87,3.62,13.74,10.53,16.05,18.88c8.25,16.22,37.4,80.51,32.82,171.03c0,0,0,0.01,0,0.01
					c-9.59,188.18-61.98,337.55-100.55,433.54l-3.44,8.52c-26.85,66.08-87.78,112.5-159.08,121.3
					c-82.12,10.13-164.24,15.45-244.07,15.84C1120.28,1798.12,1116.4,1798.14,1112.52,1798.14z M996.02,994.82
					c-74.77,0-152.87,3.3-232.68,9.83c-44.76,3.68-80.55,40.29-83.25,85.15c-7.66,126.88-3.49,326.42,59.88,556.57
					c2.9,10.55,7.58,20.37,13.93,29.22c13.6,19.07,33.56,31.99,56.25,36.44c24.5,4.79,50.71,9.09,77.89,12.78
					c38.51,5.14,78.82,9,119.78,11.47c38.91,2.23,77.96,3.25,116,2.99c77.58-0.37,157.37-5.56,237.2-15.4
					c50.14-6.19,92.95-38.72,111.71-84.91l3.44-8.53c36.97-92.01,87.22-235.16,96.36-414.54c3.56-70.47-17.36-121.99-24.81-137.88
					c-19.15-7.99-59.33-23.03-121.55-38.09c-33.43-8.1-69.77-15.32-108.02-21.45c-37.97-6.1-77.86-11.06-118.57-14.74
					c-55.32-5.09-113.58-8.03-173.21-8.73C1016.31,994.88,1006.19,994.82,996.02,994.82z M1601.9,1217.39h0.06H1601.9z"/>
			</g>
			<g>
				<path class="st5" d="M1312.51,1863.35c73.66-106.07,189.82,7.95,374.94,7.95c101.51,0,229.42-73.32,326.23,7.95
					c96.4,80.85,39.39,426.63-350.55,404.31S1233.66,1976.81,1312.51,1863.35z"/>
			</g>
			<g>
				<path class="st2" d="M2488.85,1933.51c-77.48,0-153.72-5.82-227.45-17.4c-37.53-5.85-75.51-13.45-112.86-22.6
					c-34.74-8.5-69.32-18.52-102.79-29.78c-29.02-9.75-57.7-20.69-85.26-32.49c-25.85-11.04-49.53-26.3-70.34-45.36
					c-45.14-41.18-73.97-97.47-81.14-158.46c-17.7-151.2-15.18-300.9-13.26-358.56c0.01-0.46,0.02-0.94,0.05-1.33
					c0.62-10.06,1.25-19.71,1.88-29.15c4.25-64.18,18.8-158.79,19.42-162.79c0.82-5.29,3.07-10.26,6.5-14.37
					c0.62-0.82,1.6-1.98,2.81-3.18c8.15-8.15,20.24-10.73,30.91-6.83c108.48-19.57,223.26-26.26,341.33-19.92
					c55.56,2.99,112.77,8.97,170.05,17.78c34.24,5.15,70.01,11.65,106.22,19.3c35.96,7.61,73.06,16.58,110.3,26.65
					c279.58,75.71,509.85,200.42,632.12,291.89c52,38.91,85.28,71.9,98.92,98.06c51.94,99.58-4.59,245.51-67.98,306.29
					c-35.56,34.1-74.28,43.1-106.23,24.68c0,0-0.01,0-0.01-0.01c-62.8-36.23-44.78-103.81-31.63-153.16
					c6.87-25.78,14.66-55.01,8.48-69.57c-0.18-0.41-5.23-11.54-41.58-34.53c-56.95-36.16-147.25-74.85-195.18-94.38
					c-22.25,95.71-73.58,225.16-115.23,322.21c-36.35,84.52-119.1,141.65-210.84,145.56
					C2533.58,1933.03,2511.16,1933.51,2488.85,1933.51z M1854.57,1270.51c0,0.01,0,0.02,0,0.03
					c-1.88,56.11-4.38,202.54,12.88,350.02c5.52,46.92,27.68,90.21,62.4,121.89c15.94,14.6,34.02,26.25,53.77,34.69
					c26.15,11.2,53.35,21.56,80.88,30.82c31.91,10.73,64.89,20.29,98.03,28.4c35.73,8.75,72.05,16.02,107.96,21.62
					c91.14,14.31,186.36,19.45,283.05,15.29c69.31-2.95,131.83-46.13,159.29-109.99c45.79-106.68,103.5-252.99,118.36-344.08
					c1.42-8.72,6.69-16.34,14.35-20.76c7.66-4.41,16.9-5.14,25.15-2c6.21,2.36,153.09,58.55,238.1,112.53
					c35.59,22.51,56.01,41.96,64.21,61.17c14.12,33.23,4.02,71.13-5.75,107.78c-14.67,55.04-16.12,75.33,4.18,87.05
					c8.86,5.09,24.46-5.01,36.12-16.18c48.31-46.31,93.33-166.07,56.53-236.62c-3.37-6.47-19.23-31.19-81.99-78.15
					c-117.92-88.2-340.68-208.66-612.25-282.21c-36.18-9.78-72.22-18.49-107.1-25.87c-35.07-7.41-69.7-13.7-102.9-18.69
					c-55.47-8.53-110.73-14.31-164.36-17.2c-112.08-6.02-220.92,0.15-323.75,18.36c-4.63,32.4-12.53,91.18-15.35,133.86
					C1855.79,1251.43,1855.18,1260.78,1854.57,1270.51z"/>
			</g>
			<g>
				<path class="st2" d="M1696.82,2313.95c-11.62,0-23.41-0.34-35.38-1.02c-252.92-14.48-348.1-134.55-382.33-204.84
					c-49.1-100.82-30.74-204,9.23-261.52c56.83-81.84,136.15-59.5,220.11-35.87c51.91,14.62,110.74,31.19,179,31.19
					c28.82,0,61.27-6.8,95.62-14.01c80.69-16.92,172.15-36.1,249.52,28.84c55,46.13,67.66,148.38,30.09,243.12
					C2008.9,2235.44,1873.52,2313.95,1696.82,2313.95z M1396.67,1847.65c-25.5,0-43.73,9.06-60,32.48c0,0,0,0.01-0.01,0.01
					c-29.2,42.02-43.11,123.22-4.65,202.19c49.36,101.36,167.55,162.4,332.79,171.85c11.82,0.68,23.3,1,34.36,1
					c214.55,0.02,287.12-122.33,308.82-177.04c30.38-76.61,16.8-151.19-13.21-176.36c-55.46-46.55-125.49-31.87-199.62-16.33
					c-35.78,7.5-72.77,15.26-107.7,15.26c-76.39,0-142.12-18.51-194.94-33.39C1451.17,1855.69,1420.69,1847.65,1396.67,1847.65z
					 M1312.51,1863.35h0.06H1312.51z"/>
			</g>
			<g>
				<path class="st2" d="M1696.92,2112.49c-13.04,0-26.08-0.37-39.1-1.13c-148.27-8.62-284.37-60.49-393.61-150
					c-12.57-10.3-14.41-28.83-4.11-41.4c10.3-12.57,28.83-14.4,41.4-4.11c99.56,81.58,223.95,128.87,359.73,136.77
					c131.67,7.66,265.38-27.32,376.43-98.5c13.69-8.77,31.88-4.79,40.64,8.89c8.77,13.68,4.79,31.88-8.89,40.64
					C1958.97,2074.44,1828.05,2112.49,1696.92,2112.49z"/>
			</g>
			<g>
				<g>
					<path class="st2" d="M1389.69,1901.49c1.17,15.76,0.42,28.88-0.48,41.67c-1.04,12.65-2.42,24.67-4.22,36.69
						c-1.8,11.95-3.94,23.84-6.7,36.28c-2.9,12.44-6.01,25.22-11.82,39.94c-11.13-11.33-17.21-25.08-20.73-39.18
						c-3.39-14.17-3.87-28.88-1.66-43.19c2.14-14.3,6.98-28.26,14.37-40.77C1365.92,1920.36,1375.81,1909.02,1389.69,1901.49z"/>
				</g>
			</g>
			<g>
				<g>
					<path class="st2" d="M1496.94,1945.51c2.21,16.72,1.87,31.37,1.17,45.61c-0.83,14.17-2.28,27.85-4.35,41.39
						c-2,13.54-4.63,27.02-8.02,40.84c-3.52,13.82-7.46,27.92-14.58,43.26c-10.09-13.61-15.2-28.75-17.97-44.02
						c-2.69-15.34-2.76-30.96-0.41-46.16c2.35-15.27,6.98-30.13,14.03-44.02C1474,1968.52,1483.33,1955.6,1496.94,1945.51z"/>
				</g>
			</g>
			<g>
				<g>
					<path class="st2" d="M1632.24,1977.92c5.11,16.72,6.84,32.2,7.88,47.33c0.9,15.13,0.69,29.92-0.28,44.64
						c-1.04,14.72-2.9,29.37-5.94,44.22c-3.18,14.86-7.05,29.92-14.51,45.75c-9.74-14.58-14.86-30.06-18.04-45.68
						c-3.04-15.69-3.94-31.51-2.83-47.26c1.11-15.69,4.22-31.3,9.47-46.37C1613.37,2005.63,1620.56,1991.05,1632.24,1977.92z"/>
				</g>
			</g>
			<g>
				<g>
					<path class="st2" d="M1774.17,1972.53c9.67,15.27,14.86,31.16,18.38,47.26c3.32,16.1,4.63,32.41,4.15,48.58
						c-0.48,16.24-2.83,32.41-7.19,48.23c-4.49,15.82-10.71,31.44-21.42,46.02c-6.43-16.86-9.19-32.89-11.06-48.72
						c-1.73-15.82-2.28-31.37-1.73-46.85c0.48-15.55,2-31.03,4.77-46.64C1762.91,2004.8,1766.71,1988.97,1774.17,1972.53z"/>
				</g>
			</g>
			<g>
				<path class="st23" d="M1166.57,2811.41l-19.63-68.2l-19-65.99l-98.95-344.47l-16.93-58.81c0,0,264.45-84.86,392.98,39.94
					c21.56,20.94,39.25,47.68,51.27,81.68C1571.98,2722.41,1166.57,2811.41,1166.57,2811.41z"/>
			</g>
			<g class="st4">
				<path class="st5" d="M1424.45,2659.6c30.47-57.98,39.94-131.91,6.91-225.27c-12.02-34-29.71-60.74-51.27-81.68
					c-100.54-97.64-284.28-66.96-359.46-48.99l-8.57-29.71c0,0,264.45-84.86,392.98,39.94c21.56,20.94,39.25,47.68,51.27,81.68
					C1497.21,2511.1,1472.96,2596.92,1424.45,2659.6z"/>
			</g>
			<g>
				<g>
					<path class="st2" d="M1892.89,1958.85c12.85,12.37,21.08,27.02,27.29,42.22c6.08,15.34,9.67,31.37,11.06,47.68
						c1.38,16.31,0.42,32.75-3.11,48.85c-3.66,16.03-9.47,31.86-20.11,46.09c-6.43-16.58-9.67-31.92-12.44-46.99
						c-2.63-15.06-4.42-29.78-5.6-44.57c-1.17-14.79-1.8-29.64-1.59-44.92C1888.6,1991.88,1889.29,1976.26,1892.89,1958.85z"/>
				</g>
			</g>
			<g>
				<path class="st2" d="M1166.55,2840.84c-12.85,0-24.56-8.46-28.25-21.29l-154.51-537.47c-4.4-15.28,4.14-31.29,19.28-36.15
					c3.87-1.24,95.61-30.16,199.85-29.58c145.08,1.07,242.29,59.65,281.13,169.4c33.51,94.74,29.53,180.49-11.82,254.87
					c-83.75,150.67-290.59,197.6-299.35,199.53C1170.76,2840.62,1168.63,2840.84,1166.55,2840.84z M1160.26,2782.68L1160.26,2782.68
					L1160.26,2782.68z M1048.59,2294.52l138.2,480.79c54.74-16.95,179.51-65.01,234.12-163.48c32.69-58.95,35.27-128.41,7.66-206.46
					C1367.73,2233.42,1130.08,2274.74,1048.59,2294.52z"/>
			</g>
			<g>
				<path class="st23" d="M2137.16,2838.09c0,142.14-100.27,257.4-223.96,257.4c-75.46,0-142.21-42.91-182.77-108.63
					c-2.69-4.35-5.25-8.78-7.6-13.34c-21.28-39.25-33.58-85.69-33.58-135.44c0-106.14,55.9-197.28,135.71-236.6
					c27.09-13.41,56.87-20.8,88.24-20.8c25.15,0,49.27,4.77,71.8,13.54C2073.52,2628.64,2137.16,2724.83,2137.16,2838.09z"/>
			</g>
			<g class="st24">
				<path class="st5" d="M2002.96,2694.84c-42.22-14.37-87.41-25.84-131.08-16.86c-50.17,10.3-92.18,47.33-116.78,92.25
					c-24.6,44.92-33.38,97.02-34.27,148.22c-0.35,18.38,0.35,36.76,2,55.07c-21.28-39.25-33.58-85.69-33.58-135.44
					c0-106.14,55.9-197.28,135.71-236.6c26.33,0.9,52.59,7.12,76.91,17.34C1942.43,2635.97,1977.81,2663.95,2002.96,2694.84z"/>
			</g>
			<g>
				<path class="st2" d="M1146.94,2772.63c-13.12,0-24.65-8.68-28.27-21.29l-117.96-410.46c-3.89-13.54,2.37-27.94,14.92-34.34
					c62.17-31.66,194.5-53.04,294.07-1.4c61.17,31.72,98.93,86.13,109.17,157.34c11.1,77.17-7.17,143.98-54.29,198.56
					c-76.89,89.07-202.39,111.53-217.54,111.59C1147.01,2772.63,1146.98,2772.63,1146.94,2772.63z M1064.46,2349.68l103.39,359.78
					c37.52-9.58,111.52-36.13,156.48-91.99c32.31-40.15,44.53-89.48,36.31-146.61c-7.53-52.36-33.78-90.55-78.02-113.48
					C1215.59,2322.61,1121.47,2329.81,1064.46,2349.68z"/>
			</g>
			<g>
				<path class="st2" d="M1913.2,3124.91c-139.71,0-253.37-128.66-253.37-286.82c0-158.15,113.66-286.82,253.37-286.82
					s253.37,128.67,253.37,286.82C2166.58,2996.24,2052.91,3124.91,1913.2,3124.91z M1913.2,2610.1
					c-107.27,0-194.54,102.27-194.54,227.99c0,125.71,87.27,227.98,194.54,227.98s194.54-102.27,194.54-227.98
					C2107.74,2712.38,2020.47,2610.1,1913.2,2610.1z"/>
			</g>
			<g>
				<path class="st2" d="M1871.95,3090.36c-116.97,0-212.12-111.61-212.12-248.81s95.16-248.81,212.12-248.81
					c116.96,0,212.12,111.61,212.12,248.81S1988.91,3090.36,1871.95,3090.36z M1871.95,2651.56c-84.52,0-153.29,85.23-153.29,189.98
					s68.77,189.98,153.29,189.98s153.28-85.23,153.28-189.98S1956.47,2651.56,1871.95,2651.56z"/>
			</g>
			<g>
				<path class="st2" d="M1842.1,2783.5c-0.07,6.01-7.95,8.15-11.06,2.97c-16.86-27.92-45.88-82.85-18.45-91.28
					C1840.09,2686.69,1842.65,2750.33,1842.1,2783.5z"/>
			</g>
			<g>
				<path class="st2" d="M1170.09,2467.91c-4.29,4.15-11.4,0.14-9.95-5.74c7.88-31.65,26.33-91.01,51.62-77.53
					C1237.26,2398.26,1194,2444.9,1170.09,2467.91z"/>
			</g>
			<g>
				<path class="st2" d="M1200.08,2552.49c-5.25-2.97-3.39-10.85,2.62-11.13c32.62-1.52,94.67-0.83,89.07,27.29
					C1286.11,2596.86,1228.97,2568.73,1200.08,2552.49z"/>
			</g>
			<g>
				<path class="st2" d="M1913.83,2873.95c-4.29-4.22-0.42-11.4,5.46-10.09c31.86,6.98,91.63,23.84,78.91,49.48
					C1985.35,2939.18,1937.46,2897.17,1913.83,2873.95z"/>
			</g>
			<g>
				<path class="st2" d="M1821.16,2865.8c4.42-4.01,11.4,0.28,9.74,6.01c-8.91,31.37-29.23,90.04-54.11,75.8
					C1751.78,2933.31,1796.56,2888.05,1821.16,2865.8z"/>
			</g>
			<g>
				<path class="st25" d="M2345.71,2318.52c-2.07,16.24-16.65,27.85-32.89,26.53l-63.92-17.07c0,0,38.21,121.76,12.99,135.71
					c-41.88,23.08-139.58,5.8-149.95-27.09c-2.35-7.53-2-18.24,0-30.34c6.63-39.87,30.89-94.12,30.89-94.12l-52.93-7.53l-0.69-0.07
					c-19.56-2.76-31.44-23.01-24.32-41.53c20.11-52.1,70.14-140.14,175.79-125.21c22.73,3.18,40.84,10.3,55.21,20.04
					c38.9,26.4,50.44,72.14,52.1,112.01C2348.75,2288.11,2347.43,2305.11,2345.71,2318.52z"/>
			</g>
			<g class="st4">
				<path class="st5" d="M2347.99,2269.87c-21.9-35.1-55.56-62.81-94.6-76.63c-21.42-7.6-45.05-11.06-66.75-4.35
					c-19.63,6.01-35.93,19.83-49.34,35.31c-20.66,23.7-35.52,51.27-47.4,80.43l-0.69-0.07c-19.56-2.76-31.44-23.01-24.32-41.53
					c20.11-52.1,70.14-140.14,175.79-125.21c22.73,3.18,40.84,10.3,55.21,20.04C2334.79,2184.25,2346.33,2230,2347.99,2269.87z"/>
			</g>
			<g>
				<path class="st25" d="M1808.1,936.01c0,0,76.56,13.61,98.95-0.07c22.67-13.89,17.41-90.25-7.67-117.26
					c-15.13-16.31-99.16,34.97-99.16,34.97l0.9-51c-2.07-12.44-13.47-21.15-25.98-19.69c-41.46,4.84-124.87,25.29-115.74,112.29
					c8.57,81.88,83.75,102.96,126.52,108.28c15.13,1.87,28.12-10.78,26.54-25.98L1808.1,936.01z"/>
			</g>
			<g>
				<path class="st2" d="M2209.96,2503.86c-27.67,0-55.92-5.55-77.41-14.15c-26.36-10.55-42.74-25.41-48.66-44.17
					c-8.78-27.7,4.2-74.05,17.37-109.56l-16.18-2.3c-18.26-2.57-34.11-13.17-43.45-29.07c-9.34-15.9-10.89-34.89-4.25-52.1
					c40.23-104.27,115.78-156.72,207.34-143.82c96.96,13.67,145.59,93.55,130.11,213.66c-4.06,31.78-32.39,54.69-64.43,52.1
					c-1.77-0.14-3.52-0.45-5.24-0.91l-14.22-3.8c23.03,98.94-3.84,113.73-14.85,119.8
					C2257.76,2499.63,2234.08,2503.86,2209.96,2503.86z M2139.79,2426.86c10.49,11.91,69.97,24.98,101.34,14.03
					c1.25-17.57-7.42-62.87-20.31-104.04c-3.2-10.24-0.58-21.41,6.84-29.15c7.42-7.74,18.46-10.85,28.83-8.06l59.55,15.92
					c0.22-0.17,0.38-0.4,0.41-0.69c7.89-61.24,0.43-136.58-79.95-147.91c-80.78-11.34-123.03,51.78-144.24,106.74
					c-0.09,0.23-0.23,0.59,0.08,1.11c0.32,0.53,0.73,0.59,0.97,0.63l53.58,7.6c9.14,1.3,17.14,6.82,21.61,14.9
					c4.47,8.08,4.88,17.79,1.12,26.22C2151.37,2365.07,2137.5,2413.06,2139.79,2426.86z M2140.01,2427.87h0.06H2140.01z
					 M2139.26,2426.19"/>
			</g>
			<g>
				<path class="st2" d="M1788.93,1033.13c-2.19,0-4.4-0.14-6.61-0.41c-88.95-11.06-144.4-60.06-152.18-134.42
					c-8.3-79.21,44.63-133.26,141.59-144.57c28.11-3.3,53.75,16.1,58.41,44.08c0.29,1.77,0.43,3.56,0.4,5.35l-0.01,0.35
					c65.92-31.25,82.57-13.31,90.42-4.84c24.97,26.89,33.39,78.21,28.65,112.84c-4.07,29.67-17.02,43.31-27.17,49.52
					c-18.74,11.45-51.67,11.9-81.16,9.19l0.45,4.26c1.69,16.2-4,32.02-15.61,43.42C1816.06,1027.75,1802.79,1033.13,1788.93,1033.13
					z M1783.19,980.6h0.06H1783.19z M1771.51,813.09c-59.58,8.62-87.46,35.21-82.86,79.09c5.76,55.08,52.64,74.69,93.78,81.16
					l-3.59-34.25c-0.96-9.19,2.45-18.29,9.21-24.59c6.76-6.3,16.08-9.05,25.19-7.44c29.83,5.27,64.23,7.08,76.51,4.26
					c4.74-12.33,2.34-46.67-6.93-65.11c-14.53,4.18-43.14,17.86-67.28,32.57c-9.17,5.59-20.65,5.74-29.94,0.4
					c-9.31-5.33-14.98-15.31-14.79-26.03L1771.51,813.09z M1888.67,913.51C1888.67,913.52,1888.67,913.52,1888.67,913.51
					L1888.67,913.51z"/>
			</g>
			<g>
				<path class="st26" d="M1691.04,1498.7c-25.36,6.15-46.71,24.39-60.67,46.44c-13.96,22.04-21.15,47.82-25.36,73.59
					c-3.59,21.84-5.04,44.5,0.9,65.78c6.01,21.28,20.52,41.05,41.25,48.72c20.73,7.67,47.27,0.21,57.49-19.42
					c18.59-35.93-23.77-80.92-7.6-117.95c9.74-22.39,38.21-33.86,43.6-57.7c2.9-12.71-2.42-26.88-12.85-34.62
					C1717.37,1495.8,1702.44,1495.94,1691.04,1498.7z"/>
			</g>
			<g>
				<path class="st26" d="M1146.11,1821.82c-37.11-5.46-74.7,16.58-95.01,48.09c-20.38,31.51-25.64,70.76-23.15,108.21
					c1.31,19.21,4.63,38.63,13.61,55.7c8.98,17,24.25,31.44,42.98,35.93c18.73,4.42,40.63-2.9,50.1-19.69
					c10.23-18.04,4.42-40.63-2.56-60.19s-14.86-40.84-8.08-60.46c5.18-15,17.97-25.77,29.3-36.9c11.33-11.13,22.25-24.88,21.9-40.7
					C1174.86,1835.85,1156.62,1820.78,1146.11,1821.82z"/>
			</g>
			<g>
				<path class="st26" d="M2263.68,854.89c-0.97,35.45,15.27,70.07,39.87,95.64c24.6,25.57,56.87,42.64,90.59,53.62
					c17.83,5.8,37.11,9.95,55.28,5.18c18.17-4.77,34.41-21.08,33.51-39.8c-1.04-21.15-21.9-35.66-42.01-42.29
					c-20.11-6.63-42.29-9.19-59.08-22.04c-14.24-10.92-22.53-27.71-31.65-43.26c-9.12-15.48-20.8-31.1-37.94-36.62
					S2264.37,828.63,2263.68,854.89z"/>
			</g>
			<g>
				<path class="st26" d="M1711.36,2414.91c-30.47,10.92-62.05,18.66-94.05,23.08c-12.58,1.73-25.91,3.25-36.14,10.85
					c-16.38,12.16-18.86,37.66-8.29,55.14c10.5,17.48,31.1,27.09,51.41,28.68c20.32,1.59,40.56-3.94,59.7-10.99
					c23.49-8.64,46.09-19.76,67.24-33.24c12.09-7.67,24.19-16.86,29.58-30.13c6.56-16.24,0.41-36.62-14.03-46.57
					C1752.27,2401.85,1732.78,2407.24,1711.36,2414.91z"/>
			</g>
			<g>
				<path class="st26" d="M1691.46,3220.15c-2.9-18.31-6.36-36.83-14.1-53.69c-7.74-16.86-20.18-32.27-36.97-40.15
					c-16.79-7.88-38.28-7.05-52.52,4.84c-14.24,11.89-18.38,35.45-6.56,49.75c6.56,7.95,16.58,12.23,24.12,19.28
					c20.04,18.59,17.97,50.24,25.91,76.43c4.7,15.41,13.61,29.92,27.02,38.77c13.41,8.84,31.51,11.33,45.81,3.94
					c14.3-7.39,22.87-25.43,17.48-40.56c-3.66-10.16-12.37-17.48-19.42-25.64C1695.19,3244.89,1693.6,3233.69,1691.46,3220.15z"/>
			</g>
			<g>
				<path class="st26" d="M1339.46,765.89c-51.13-2.97-99.3,24.95-148.98,37.38c-15.76,3.94-32.82,8.78-42.57,21.84
					c-14.3,19.28-4.49,49.2,15.62,62.19c20.11,13.06,46.44,12.37,69.45,5.74c23.01-6.63,44.15-18.52,66.61-26.95
					c15.41-5.74,31.51-9.95,45.81-18.17c14.3-8.22,26.81-21.49,29.02-37.73C1376.63,793.94,1366.68,767.47,1339.46,765.89z"/>
			</g>
			<g>
				<path class="st26" d="M2681.75,923.64c-14.03,4.63-30.2,14.79-36.07,28.33c-4.08,9.47-1.94,20.73,3.11,29.78
					c14.79,26.67,51.83,35.03,80.43,24.53c28.68-10.57,49.68-35.66,64.26-62.47c6.7-12.3,12.44-26.95,7.39-40.01
					c-6.15-16.1-26.74-22.67-43.53-18.73C2740.55,888.95,2728.73,908.16,2681.75,923.64z"/>
			</g>
			<g>
				<g>
					<path class="st2" d="M2861.41,1266.59c3.59-17.21,6.77-35.45,9.6-53.35c2.83-18.04,5.32-36.07,7.39-54.24
						c4.01-36.35,6.56-72.9,5.25-109.87c10.43,35.52,17.21,72.49,22.39,109.53c2.49,18.52,4.63,37.18,6.43,55.9
						c1.73,18.8,3.18,37.25,4.01,56.66c0.69,15.34-11.26,28.4-26.6,29.02c-15.34,0.69-28.4-11.26-29.02-26.6
						C2860.72,1271.22,2860.99,1268.8,2861.41,1266.59z"/>
				</g>
			</g>
			<g>
				<g>
					<path class="st2" d="M2360.22,2424.79c2.42-5.39,5.04-12.44,7.32-18.93c2.35-6.63,4.56-13.34,6.7-20.11
						c4.22-13.54,7.88-27.29,11.06-41.18c6.36-27.78,10.43-56.18,11.82-84.79c1.17-28.61-0.55-57.42-6.63-85.69
						c-3.04-14.1-7.39-27.99-12.72-41.53c-5.46-13.54-12.37-26.53-20.32-39.04c9.74,11.13,18.73,23.08,26.47,35.93
						c7.6,12.92,14.3,26.47,19.76,40.63c10.92,28.26,17.55,58.32,21.08,88.66c3.32,30.4,3.73,61.15,1.59,91.7
						c-1.04,15.27-2.69,30.61-4.91,45.81c-1.17,7.6-2.35,15.27-3.8,22.87c-1.52,7.81-2.9,14.93-5.18,23.56l-0.07,0.35
						c-3.87,14.79-19.07,23.7-33.86,19.76c-14.79-3.87-23.7-19.07-19.76-33.86C2359.11,2427.63,2359.67,2426.11,2360.22,2424.79z"/>
				</g>
			</g>
			<g>
				<g>
					<path class="st2" d="M2516.87,751.93c-74.21-36.35-124.45-105.45-138.13-177.8c31.23,66.75,93.08,113.05,156.58,125.69
						c15.13,2.97,24.95,17.69,21.97,32.82c-2.97,15.13-17.69,24.95-32.82,21.97c-2.35-0.48-4.63-1.24-6.7-2.21L2516.87,751.93z"/>
				</g>
			</g>
			<g>
				<g>
					<path class="st2" d="M1285.07,636.18l-73.59-75.53l101.72,27.92c15.27,4.21,24.25,19.97,20.04,35.17
						c-4.22,15.27-19.97,24.25-35.17,20.04C1292.95,642.4,1288.53,639.64,1285.07,636.18z"/>
				</g>
			</g>
			<g class="st1">
				<path class="st2" d="M1025.81,2197.11c0,0,25.98,269.15-106.42,264.86c-56.32-1.87-83.06-39.73-92.46-94.94
					c16.1,10.37,37.66,14.51,56.32,8.91c35.73-10.64,59.77-43.88,76.49-77.26c21.01-41.94,34.9-87.48,40.98-134.06
					c1.87-14.1,21.63-15.06,25.08-1.31c5.46,21.97,9.4,44.29,12.16,66.89C1030.3,2209.2,1025.81,2197.11,1025.81,2197.11z"/>
			</g>
			<g class="st27">
				<path class="st28" d="M1166.57,2811.41l-19.63-68.2l-19-65.99c84.3-16.03,163.98-58.6,217.11-125.63
					c52.38-65.99,74.98-155.62,59.98-237.71c21.56,20.94,39.25,47.68,51.27,81.68C1571.98,2722.41,1166.57,2811.41,1166.57,2811.41z
					"/>
			</g>
			<g class="st1">
				<path class="st28" d="M2137.16,2838.09c0,142.14-100.27,257.4-223.96,257.4c-75.46,0-142.21-42.91-182.77-108.63
					c42.57,7.74,89.35,2.56,130.53-15.62c79.33-34.97,135.85-113.88,149.81-199.36c9.81-59.98-0.42-122.24-25.77-177.66
					C2073.52,2628.64,2137.16,2724.83,2137.16,2838.09z"/>
			</g>
			<g>
				<path class="st28" d="M2402.99,3170.88"/>
			</g>
			<g class="st29">
				<path class="st28" d="M2345.71,2318.52c-2.07,16.24-16.65,27.85-32.89,26.53l-63.92-17.07c0,0,38.21,121.76,12.99,135.71
					c-41.88,23.08-139.58,5.8-149.95-27.09c-2.35-7.53-2-18.24,0-30.34c24.25,4.28,48.51,3.94,68.82-8.91
					c20.66-13.06,32.48-36.97,36.55-61.09c1.52-8.98,2.07-18.1,2-27.16c-0.07-18.86,17-33.1,35.45-29.3c0.97,0.21,2,0.35,2.97,0.55
					c14.93,2.35,31.79-1.24,41.53-12.92c8.08-9.67,9.95-23.08,10.16-35.73c0.55-25.22-4.22-50.44-13.54-73.8
					C2352.48,2196.35,2351.17,2275.74,2345.71,2318.52z"/>
			</g>
			<g class="st1">
				<path class="st2" d="M1383.34,3134.74c-4.15,59.5-20.94,109.87-65.72,109.87c-30.75,0-47.96-18.1-57.63-48.16
					c5.46,0.83,11.13,0.55,16.45-0.9c20.32-5.67,34.55-24.95,40.22-45.26c5.67-20.32,4.22-41.88,2.69-62.95
					c-3.87-54.87-7.74-109.66-11.61-164.53c-0.9-12.85-1.73-26.33,3.8-37.94c5.53-11.61,19.69-20.11,31.44-14.86
					c8.36,3.66,12.72,12.71,15.96,21.21c9.05,23.98,13.96,49.41,14.51,74.97c0.07,1.04,0.14,2.14,0.07,3.25
					c0.07,3.18,0,6.29-0.07,9.47C1371.8,3031.29,1378.36,3083.19,1383.34,3134.74z"/>
			</g>
		</g>
	</g>
</g>
</svg>
